<svg width="130" height="129" viewBox="0 0 130 129" fill="none" xmlns="http://www.w3.org/2000/svg">
<path d="M0 64.4945C0.338031 62.1734 0.574653 59.8388 0.990431 57.5345C3.51214 43.601 10.2052 31.9853 20.8565 22.6336C29.6641 14.7903 40.6402 9.75799 52.361 8.18948C66.8964 6.17402 80.4987 8.91168 93.0464 16.5435C93.2587 16.7015 93.4337 16.9035 93.5592 17.1356C93.6847 17.3676 93.7577 17.6241 93.7732 17.8872C93.5907 22.0827 93.3338 26.2849 93.0633 30.4602C93.0351 30.8721 92.8726 31.2637 92.6002 31.5754C91.1467 33.0938 89.6459 34.5684 88.0808 36.1371L86.9281 35.3175C79.9917 30.3964 72.4908 26.8055 63.898 25.912C53.7943 24.8573 44.4545 27.1683 36.1693 32.9191C23.1146 41.955 16.7968 54.5785 17.3106 70.3628C17.9528 90.3595 33.4347 107.783 53.2027 111.139C75.2052 114.881 96.0008 102.691 102.761 81.7367C107.514 67.0743 104.746 53.7488 94.4763 42.0793L93.6819 41.169C95.1896 39.6944 96.6701 38.2264 98.1879 36.8022C98.4554 36.6103 98.7774 36.508 99.1073 36.51C103.282 36.2547 107.46 36.0397 111.614 35.7676C111.939 35.7141 112.272 35.7675 112.563 35.9197C112.854 36.072 113.088 36.3146 113.227 36.6107C119.93 47.6957 123.067 59.6944 121.931 72.5832C119.903 95.6534 108.227 112.435 87.5737 122.946C77.9365 127.85 67.5319 129.664 56.7351 128.787C35.9969 127.081 20.096 117.286 8.95106 99.9262C3.78595 91.8274 0.993811 82.8586 0.226481 73.2785C0.174239 72.8659 0.0986257 72.4566 0 72.0525V64.4945Z" fill="#171A1C"/>
<path d="M115.353 0C115.621 0.36229 115.908 0.710955 116.212 1.04468C120.415 5.23458 124.624 9.41664 128.841 13.5909C129.158 13.8649 129.497 14.1132 129.855 14.3332L130 14.8707C129.569 15.0605 129.162 15.3019 128.79 15.5895C125.011 19.3114 121.235 23.0333 117.51 26.8089C117.166 27.1912 116.746 27.4982 116.276 27.7105C115.807 27.9227 115.298 28.0355 114.782 28.0417C110.563 28.213 106.351 28.4918 102.136 28.7135C101.768 28.737 101.392 28.7135 100.835 28.7135C100.966 26.1136 101.088 23.5774 101.227 21.0447C101.348 18.8243 101.45 16.6006 101.663 14.3903C101.73 13.7552 101.996 13.1571 102.423 12.6806C106.628 8.42459 110.874 4.21902 115.1 0H115.353Z" fill="#171A1C"/>
<path d="M82.439 41.468L71.4563 52.4018C66.565 49.4021 61.2106 48.5153 55.5689 50.2083C51.222 51.4796 47.4942 54.2889 45.0899 58.1055C42.678 61.8521 41.6733 66.324 42.2528 70.7342C42.8323 75.1444 44.9588 79.2101 48.2579 82.2156C51.5571 85.2212 55.8174 86.9739 60.289 87.1652C64.7606 87.3566 69.1567 85.9743 72.7037 83.2617C79.7178 77.914 82.946 67.474 77.1623 58.0686L88.5235 46.7988C91.3662 49.7406 93.597 53.2107 95.0881 57.0105C99.567 68.8613 97.5523 79.9463 90.0514 89.8052C81.1511 101.505 68.9177 106.318 54.4162 103.577C39.6645 100.8 30.0442 91.6897 26.0453 77.2993C20.4745 57.259 33.9552 36.8055 54.5886 33.5909C63.1611 32.2473 70.9899 34.4508 78.3285 38.7706C79.5623 39.4962 80.7454 40.3057 81.9488 41.085C82.1191 41.2038 82.2827 41.3316 82.439 41.468Z" fill="#171A1C"/>
<path d="M63.9386 70.7928L71.2569 63.4532C73.782 67.4841 72.3995 73.6884 68.3499 77.0307C66.2362 78.7586 63.5679 79.674 60.8316 79.6101C58.0954 79.5462 55.4734 78.5071 53.4437 76.6824C51.4141 74.8577 50.1119 72.3689 49.7748 69.6697C49.4377 66.9706 50.088 64.241 51.6072 61.9786C54.7576 57.3329 60.8625 55.6165 65.8282 58.0216L58.3915 65.3074L63.9386 70.7928Z" fill="#171A1C"/>
</svg>
