<svg width="49" height="49" viewBox="0 0 49 49" fill="none" xmlns="http://www.w3.org/2000/svg">
<path fill-rule="evenodd" clip-rule="evenodd" d="M23.7341 0.29088C22.1416 1.27484 0.481092 15.4616 0.294205 15.6429C0.162178 15.7711 0.0501603 16.0195 0.0186613 16.2541C-0.0292093 16.6115 -0.00182729 16.682 0.303492 16.9876C0.858505 17.5432 1.11519 17.4867 2.69166 16.4632C3.42236 15.9888 4.03922 15.6006 4.06249 15.6006C4.08575 15.6006 4.1161 22.6411 4.12989 31.2461L4.15498 46.8916L4.37451 47.3032C4.71296 47.9376 5.21991 48.441 5.81503 48.7336L6.35703 49H24.5H42.643L43.1901 48.7311C43.8612 48.4012 44.4382 47.7656 44.6983 47.0698C44.891 46.554 44.8929 46.3989 44.8929 31.0747C44.8929 22.564 44.9252 15.6006 44.9647 15.6006C45.0043 15.6006 45.4458 15.8846 45.9461 16.2316C47.6845 17.4375 48.1258 17.5589 48.6965 16.9876C49.002 16.6819 49.0292 16.6116 48.9813 16.2538C48.946 15.9908 48.8376 15.7716 48.6579 15.6001C48.5092 15.458 43.1119 11.9016 36.6638 7.69672C28.1001 2.11218 24.8485 0.0398813 24.6004 0.00844664C24.3346 -0.0251923 24.1462 0.0362395 23.7341 0.29088ZM32.0062 14.3925C32.418 14.5647 32.638 14.8853 32.638 15.3131C32.638 15.7409 32.418 16.0615 32.0062 16.2337C31.5322 16.432 17.4678 16.432 16.9938 16.2337C16.582 16.0615 16.362 15.7409 16.362 15.3131C16.362 14.8936 16.5789 14.5682 16.9726 14.3966C17.4213 14.2012 31.5396 14.1974 32.0062 14.3925ZM32.3582 19.7143C32.8136 20.1702 32.7142 20.9596 32.1603 21.2872C31.9148 21.4323 31.2234 21.4467 24.5 21.4467C17.7767 21.4467 17.0852 21.4323 16.8397 21.2872C16.2858 20.9596 16.1864 20.1702 16.6419 19.7143L16.9217 19.4341H24.5H32.0783L32.3582 19.7143ZM35.7018 37.8349V47.0353H34.6965H33.6912V43.9685V40.9017H29.6235H25.5559L25.5306 43.9446L25.5053 46.9874H24.5H23.4947L23.4695 43.9446L23.4442 40.9017H19.3765H15.3088V43.9685V47.0353H14.3036H13.2983V37.8349V28.6345H24.5H35.7018V37.8349ZM19.8878 30.8112C19.7469 30.8987 19.5854 31.0721 19.5287 31.1966C19.461 31.3455 19.4257 32.6818 19.4257 35.1081V38.7933H24.5H29.5743V35.0988C29.5743 31.0915 29.5627 30.9953 29.0504 30.7616C28.8674 30.6781 27.6278 30.6478 24.4716 30.6497C20.6099 30.6519 20.1162 30.6694 19.8878 30.8112Z" fill="black"/>
</svg>
