<svg width="56" height="41" viewBox="0 0 56 41" fill="none" xmlns="http://www.w3.org/2000/svg">
<path fill-rule="evenodd" clip-rule="evenodd" d="M36.0535 0.111993C35.6481 0.295335 35.2846 0.672497 35.1305 1.06976C35.0508 1.27523 35.0138 4.59058 35.0138 11.5198V21.6688H33.8201H32.6264L32.4647 21.2145C30.1926 14.8321 26.9256 5.96741 26.6773 5.51093C25.9472 4.16862 24.5876 3.07327 23.0053 2.55286L22.1534 2.27266L17.6659 2.23749L13.1784 2.20221L12.6868 2.44766C12.4165 2.58268 12.0839 2.85657 11.948 3.05638L11.7009 3.41965V9.64817V15.8767L8.49945 15.9219C5.02791 15.971 4.78755 16.0057 3.48608 16.6474C2.06706 17.3467 0.809476 18.7692 0.294731 20.257C0.0503289 20.9631 0.0461698 21.0642 0.0137725 26.9541C-0.0177492 32.698 -0.0103066 32.962 0.201808 33.6357C0.731547 35.3185 2.27261 36.4218 4.0932 36.4218H4.76402L4.96158 37.0657C5.68515 39.4251 8.2696 41.1537 10.8253 40.9874C13.233 40.8308 15.3716 39.2199 16.0322 37.0657L16.2298 36.4218H18.6639H21.098L21.2666 36.983C21.8199 38.8252 23.5706 40.4101 25.5576 40.8675C27.5258 41.3207 29.8937 40.5809 31.1831 39.1099C31.6801 38.543 32.252 37.5446 32.4443 36.9085L32.5753 36.4752L43.7465 36.4218C54.8158 36.3689 54.9205 36.3663 55.2199 36.1479C55.6984 35.7989 55.9389 35.4139 55.9926 34.9106C56.0578 34.2997 55.6843 33.5707 55.1526 33.2705C54.7788 33.0595 54.5724 33.0535 46.6439 33.0248L38.5182 32.9956L38.4899 17.0236C38.4614 1.08034 38.461 1.05116 38.2358 0.756525C38.1116 0.594136 37.8814 0.367389 37.7241 0.252679C37.3614 -0.0118045 36.4897 -0.0852479 36.0535 0.111993ZM22.3403 5.98612C23.4455 6.51627 23.3932 6.40455 26.2724 14.3684C27.7091 18.3424 28.8845 21.6107 28.8845 21.6313C28.8845 21.6519 26.4063 21.6688 23.3772 21.6688C17.2872 21.6688 17.1679 21.6575 16.2799 20.996C16.0142 20.798 15.6835 20.4041 15.509 20.0779L15.2033 19.5063V12.5625V5.61869L18.4594 5.65258L21.7156 5.68647L22.3403 5.98612ZM11.6286 33.3481C12.8952 34.0321 13.1814 35.7414 12.2101 36.8219C10.8244 38.3635 8.19846 37.4023 8.19846 35.3536C8.19846 33.5548 10.0292 32.4844 11.6286 33.3481ZM27.4375 33.1264C28.1622 33.3046 28.9162 34.0557 29.0931 34.7756C29.3511 35.8265 28.8707 36.8377 27.8854 37.3173C26.9262 37.7843 25.9638 37.6356 25.2158 36.905C24.4678 36.1744 24.3156 35.2344 24.7936 34.2975C25.1006 33.6957 25.6569 33.2506 26.2836 33.1055C26.7989 32.986 26.8725 32.9874 27.4375 33.1264Z" fill="#FFD400"/>
</svg>
