<svg width="48" height="48" viewBox="0 0 48 48" fill="none" xmlns="http://www.w3.org/2000/svg">
<path fill-rule="evenodd" clip-rule="evenodd" d="M20.9147 0.113774C20.3176 0.426616 20.2681 0.612993 20.0594 3.33887C19.9522 4.74007 19.8211 5.92424 19.7681 5.97044C19.7152 6.01663 19.2861 6.1626 18.8145 6.29475C17.7156 6.60277 15.9114 7.36092 14.9763 7.90751L14.2462 8.33428L12.357 6.71584C11.318 5.82564 10.304 5.02891 10.1038 4.9452C9.46933 4.68016 9.2164 4.85454 7.00524 7.08205C4.88486 9.21815 4.69634 9.48769 4.92002 10.0633C4.97553 10.2062 5.77453 11.2006 6.69561 12.2731L8.37013 14.2231L8.04614 14.7496C7.35506 15.8727 6.11407 18.9372 6.11407 19.5206C6.11407 19.6128 6.05716 19.7234 5.9876 19.7664C5.91804 19.8094 4.72474 19.9322 3.33563 20.0392C0.635423 20.2474 0.444755 20.2982 0.140589 20.8901C-0.0468629 21.2549 -0.0468629 26.7208 0.140589 27.0857C0.445184 27.6783 0.633386 27.7282 3.36006 27.9384C4.76247 28.0465 5.94784 28.1785 5.99435 28.2317C6.04076 28.2849 6.18695 28.7143 6.3191 29.1858C6.62755 30.2863 7.3855 32.0892 7.93393 33.0275L8.36285 33.7612L6.69196 35.7069C5.77293 36.777 4.97553 37.7696 4.92002 37.9124C4.69623 38.4882 4.88465 38.7574 7.00985 40.8983C9.1597 43.0642 9.50245 43.3083 10.0796 43.085C10.227 43.028 11.2254 42.2295 12.2985 41.3108L14.2494 39.6404L14.9959 40.0708C16.025 40.6641 17.5098 41.2945 18.6852 41.6373C19.2279 41.7955 19.7133 41.96 19.7638 42.0029C19.8145 42.0457 19.9465 43.2303 20.0572 44.6353C20.2723 47.3657 20.3228 47.5552 20.9147 47.8594C21.2795 48.0469 26.7455 48.0469 27.1104 47.8594C27.7061 47.5533 27.7571 47.3616 27.9612 44.6649C28.0662 43.2791 28.1847 42.0923 28.2247 42.0277C28.2645 41.9632 28.4739 41.8772 28.6897 41.8367C28.9057 41.7962 29.485 41.6173 29.9771 41.4393L30.8718 41.1156V36.3973V31.679L30.4967 31.9596C30.2904 32.1141 29.9648 32.3573 29.7733 32.5002C29.1988 32.9288 27.4465 33.7239 26.5312 33.9714C25.3913 34.2795 22.8413 34.3106 21.7229 34.03C17.896 33.0697 15.013 30.2355 14.0315 26.4685C13.7257 25.2953 13.6571 23.5285 13.87 22.3106C14.5802 18.2474 17.4728 15.1083 21.5318 13.996C22.5988 13.7036 25.1889 13.6721 26.2626 13.9385C26.6454 14.0335 26.9738 14.0961 26.9923 14.0776C27.0108 14.059 26.9077 13.7613 26.7631 13.416C26.1117 11.8602 25.7286 10.0006 25.7286 8.39398C25.7286 6.41928 26.3788 3.87496 27.2933 2.27002C27.8633 1.26997 27.8956 0.882108 27.4511 0.384389L27.1386 0.0343571L24.1554 0.00659899C21.9194 -0.0143001 21.1078 0.0126008 20.9147 0.113774ZM33.3844 0.528325C32.0093 1.48797 31.0062 2.59519 30.3028 3.93015C28.7162 6.9408 28.809 10.3414 30.5588 13.3009C31.1309 14.2686 32.7251 15.8664 33.6295 16.3785L34.292 16.7536L34.3236 30.7455L34.3551 44.7374L34.7554 45.5472C35.2374 46.5226 35.8581 47.1302 36.8544 47.6022C37.5019 47.9089 37.6678 47.9414 38.5885 47.9414C39.5093 47.9414 39.6752 47.9089 40.3226 47.6022C41.319 47.1302 41.9396 46.5226 42.4217 45.5472L42.822 44.7374L42.8535 30.7455L42.885 16.7536L43.5476 16.3785C44.4519 15.8664 46.0462 14.2686 46.6183 13.3009C48.8823 9.47162 48.3258 4.83235 45.2295 1.72096C44.4454 0.933016 43.1203 0.0147443 42.9759 0.159108C42.9201 0.214946 42.8657 2.42103 42.8499 5.27466L42.822 10.2919L40.7053 11.1376L38.5885 11.9834L36.4718 11.1376L34.3551 10.2919L34.3015 5.22568C34.2654 1.8066 34.211 0.147105 34.1346 0.121597C34.0723 0.100805 33.7347 0.28386 33.3844 0.528325Z" fill="#FFD400"/>
</svg>
