<svg width="46" height="46" viewBox="0 0 46 46" fill="none" xmlns="http://www.w3.org/2000/svg">
<path fill-rule="evenodd" clip-rule="evenodd" d="M7.32956 0.0920456C6.80433 0.180214 6.50683 0.364279 6.27487 0.744543C6.08014 1.06387 6.04184 1.6948 6.19854 2.00388C6.2532 2.11182 7.01066 2.91729 7.88158 3.79376L9.46509 5.38725L9.21525 7.16185C9.07778 8.1379 8.95461 8.94723 8.94157 8.96035C8.92844 8.97347 8.12028 9.09391 7.14561 9.22809L5.37347 9.47192L3.78079 7.89029C2.90484 7.02047 2.09973 6.2639 1.99175 6.20926C1.65604 6.03921 1.03174 6.08927 0.69549 6.31315C0.240206 6.6163 0.0771167 7.03405 0.0153513 8.05584C-0.0892093 9.78307 0.343778 11.5938 1.20993 13.052C1.80331 14.0509 3.18993 15.4371 4.18914 16.0302C6.12401 17.1788 8.57179 17.5307 10.7662 16.976L11.5189 16.7857L20.3715 25.6354L29.2241 34.485L29.0337 35.2374C28.4788 37.4311 28.8309 39.8781 29.9798 41.8123C30.5732 42.8111 31.9598 44.1973 32.959 44.7905C34.4178 45.6563 36.2291 46.0892 37.9569 45.9847C38.979 45.9229 39.3969 45.7599 39.7002 45.3047C39.9241 44.9686 39.9742 44.3445 39.8041 44.0089C39.7495 43.901 38.992 43.0955 38.1211 42.219L36.5376 40.6255L36.7874 38.8509C36.9249 37.8749 37.046 37.0676 37.0566 37.0569C37.0673 37.0463 37.8748 36.9253 38.8512 36.7878L40.6264 36.5381L42.2204 38.1211C43.0972 38.9917 43.9029 39.7489 44.0109 39.8035C44.3466 39.9736 44.9709 39.9235 45.3072 39.6996C45.7584 39.3992 45.9152 38.9969 45.9824 37.9673C46.095 36.239 45.6645 34.4273 44.7927 32.9619C44.1951 31.9575 42.8104 30.5719 41.8152 29.9826C39.8748 28.8335 37.4307 28.4821 35.2364 29.0368L34.4838 29.2271L25.6312 20.3774L16.7786 11.5278L16.9689 10.7754C17.5238 8.58171 17.1717 6.13475 16.0228 4.20053C15.4295 3.20166 14.0428 1.8155 13.0436 1.22232C11.3911 0.241419 9.11779 -0.208319 7.32956 0.0920456ZM35.8483 0.13204C34.8543 0.320779 33.741 0.750026 32.8804 1.27652C31.882 1.88722 30.5706 3.21001 29.9798 4.20224C28.8315 6.13098 28.4788 8.58153 29.0337 10.7749L29.2238 11.5268L27.0795 13.6718L24.9352 15.8169L27.5642 18.445L30.1933 21.0732L32.339 18.9295L34.4847 16.786L35.237 16.9761C37.431 17.5308 39.8824 17.1781 41.8118 16.0302C42.7573 15.4677 44.1238 14.1291 44.691 13.2099C45.62 11.7047 45.9609 10.4667 45.9656 8.58135C45.9695 7.04834 45.8636 6.68371 45.3072 6.31315C44.9709 6.08927 44.3466 6.03921 44.0109 6.20926C43.9029 6.2639 43.0972 7.0211 42.2204 7.89173L40.6264 9.47471L38.8512 9.22495C37.8748 9.08753 37.0673 8.96646 37.0566 8.95586C37.046 8.94516 36.9249 8.1379 36.7874 7.16185L36.5376 5.38725L38.1211 3.79376C38.992 2.91729 39.7495 2.11182 39.8041 2.00388C39.9742 1.66829 39.9241 1.04419 39.7002 0.708054C39.3621 0.200615 38.9721 0.0711944 37.6715 0.0344352C36.924 0.0133144 36.297 0.0468381 35.8483 0.13204ZM13.641 27.1054L11.5186 29.227L10.766 29.0368C8.57161 28.482 6.12149 28.8345 4.19031 29.9826C3.18552 30.58 1.79944 31.9642 1.20993 32.9591C0.343058 34.4219 -0.0891194 36.2303 0.0153513 37.957C0.0771167 38.9788 0.240206 39.3965 0.69549 39.6996C1.03174 39.9235 1.65604 39.9736 1.99175 39.8035C2.09973 39.7489 2.90484 38.9923 3.78079 38.1225L5.37347 36.5409L7.14561 36.7847C8.12028 36.9189 8.92844 37.0393 8.94157 37.0524C8.95461 37.0656 9.07778 37.8749 9.21525 38.8509L9.46509 40.6255L7.88158 42.219C7.01066 43.0955 6.2532 43.901 6.19854 44.0089C6.02844 44.3445 6.07852 44.9686 6.30247 45.3047C6.60573 45.7599 7.02361 45.9229 8.04575 45.9847C9.77356 46.0892 11.5849 45.6563 13.0436 44.7905C14.0428 44.1973 15.4295 42.8111 16.0228 41.8123C17.1716 39.8782 17.5238 37.4311 16.969 35.2379L16.7789 34.486L18.9229 32.3412L21.0671 30.1964L18.461 27.59C17.0277 26.1565 15.8344 24.9837 15.8092 24.9837C15.784 24.9837 14.8084 25.9384 13.641 27.1054Z" fill="#FFD400"/>
</svg>
