<svg width="39" height="39" viewBox="0 0 39 39" fill="none" xmlns="http://www.w3.org/2000/svg">
<path fill-rule="evenodd" clip-rule="evenodd" d="M18.0532 0.0251121C17.9242 0.0429239 17.4845 0.0954998 17.076 0.141982C13.6758 0.528529 10.28 1.94558 7.38218 4.18728C6.52475 4.85054 4.82645 6.54867 4.15914 7.41004C1.99843 10.199 0.68234 13.2801 0.135499 16.83C-0.0451662 18.0031 -0.0451662 21.0167 0.135499 22.1899C1.0106 27.8711 3.98739 32.6107 8.633 35.7194C11.2145 37.4469 13.8624 38.4402 17.1151 38.9011C18.1711 39.0507 21.0435 39.0261 22.1965 38.8576C25.11 38.4318 27.9094 37.3646 30.2878 35.773C35.1093 32.5464 38.0737 27.7707 38.9035 21.8926C39.0344 20.9661 39.0314 18.041 38.8987 17.0882C38.2075 12.1255 35.8186 7.72456 32.1249 4.60922C29.3335 2.25494 25.8518 0.692662 22.2356 0.171981C21.3918 0.0505017 18.5827 -0.0481661 18.0532 0.0251121ZM25.2561 7.64058C26.349 7.76237 27.1009 7.97494 27.9816 8.41133C29.5591 9.19293 30.5305 10.3148 31.1165 12.0319C31.5253 13.2296 31.5386 13.4656 31.5386 19.5099C31.5386 24.0874 31.5176 25.2342 31.4238 25.769C30.8522 29.0308 28.6938 30.9916 25.2454 31.3817C24.3111 31.4874 14.6798 31.4868 13.7554 31.3809C11.2282 31.0916 9.32588 29.9297 8.35352 28.0817C7.98985 27.3903 7.7174 26.581 7.57512 25.769C7.40618 24.8052 7.40618 14.2147 7.57512 13.2509C7.798 11.9791 8.31225 10.7983 9.017 9.94001C10.0093 8.73147 11.7586 7.86252 13.6364 7.64534C14.5081 7.54456 24.358 7.5405 25.2561 7.64058ZM16.4897 9.83017C13.2979 9.88142 13.097 9.90775 12.0255 10.4145C11.0229 10.8886 10.1879 11.9884 9.83543 13.2992C9.69784 13.8109 9.68838 14.2113 9.68838 19.5099C9.68838 24.8085 9.69784 25.209 9.83543 25.7206C10.1879 27.0314 11.0229 28.1313 12.0255 28.6053C13.0987 29.1129 13.2918 29.1378 16.5483 29.1894C18.1715 29.2151 20.8275 29.2151 22.4506 29.1894C25.7071 29.1378 25.9003 29.1129 26.9735 28.6053C27.976 28.1313 28.811 27.0314 29.1635 25.7206C29.3011 25.209 29.3106 24.8085 29.3106 19.5099C29.3106 14.2113 29.3011 13.8109 29.1635 13.2992C28.811 11.9884 27.976 10.8886 26.9735 10.4145C25.9871 9.94806 25.6045 9.88556 23.5255 9.85197C22.4936 9.83525 21.1392 9.81306 20.5158 9.80267C19.8923 9.79228 18.0806 9.80463 16.4897 9.83017ZM26.4102 12.041C26.5537 12.1009 26.7724 12.2827 26.8963 12.4451C27.0843 12.6913 27.1216 12.8147 27.1216 13.1898C27.1216 13.5235 27.0795 13.6962 26.9581 13.8599C26.3722 14.6501 25.2634 14.6313 24.7911 13.8232C24.5952 13.488 24.5932 12.8886 24.7869 12.5583C25.0973 12.0291 25.8257 11.797 26.4102 12.041ZM20.9634 13.3372C23.8525 14.0294 25.8306 16.5381 25.8306 19.5099C25.8306 23.0556 23.0476 25.8367 19.4995 25.8367C15.9557 25.8367 13.1683 23.0513 13.1683 19.5099C13.1683 16.5542 15.1329 14.0455 17.999 13.3411C18.8342 13.1359 20.1161 13.1343 20.9634 13.3372ZM18.2487 15.6254C16.8971 16.0876 15.9552 17.063 15.559 18.4109C15.4872 18.655 15.4343 19.1217 15.4343 19.5099C15.4343 20.6482 15.8374 21.6341 16.6173 22.4033C17.4074 23.1827 18.368 23.5723 19.4995 23.5723C20.6385 23.5723 21.6251 23.1695 22.3949 22.3901C23.1748 21.6005 23.5646 20.6406 23.5646 19.5099C23.5646 18.7435 23.4306 18.2053 23.0686 17.5188C22.5987 16.6277 21.6517 15.8811 20.5993 15.5722C19.9624 15.3853 18.8792 15.4098 18.2487 15.6254Z" fill="#FFD400"/>
</svg>
