<svg width="30" height="31" viewBox="0 0 30 31" fill="none" xmlns="http://www.w3.org/2000/svg">
<path fill-rule="evenodd" clip-rule="evenodd" d="M13.5758 0.0376381C8.88181 0.542015 4.76797 3.18172 2.26893 7.29293C-1.27396 13.1214 -0.612541 20.8212 3.86665 25.8922C6.3458 28.6989 9.44629 30.3768 13.1644 30.9241C13.8586 31.0263 16.1654 31.025 16.8902 30.922C20.2859 30.4396 23.3272 28.8833 25.6402 26.4444C26.3993 25.644 26.561 25.4526 27.0645 24.7587C28.5649 22.6908 29.5473 20.1698 29.9264 17.4147C30.0245 16.7009 30.0245 14.3062 29.9263 13.5927C29.6735 11.7561 29.2137 10.1912 28.4761 8.6564C27.6945 7.03031 26.8925 5.87104 25.6441 4.56302C23.3284 2.13656 20.4289 0.629253 17.0955 0.118931C16.3758 0.00870042 14.2927 -0.0393471 13.5758 0.0376381ZM18.269 8.76972C21.8822 8.90537 22.6536 9.04806 23.3345 9.70665C23.8954 10.2491 24.1277 10.9722 24.2906 12.6827C24.391 13.7367 24.3921 17.1095 24.2924 18.2034C24.1419 19.8527 23.9947 20.4795 23.6447 20.9612C23.1573 21.632 22.6732 21.8831 21.5977 22.0227C18.7055 22.3985 10.3129 22.3624 8.07617 21.9646C6.92906 21.7606 6.20287 21.0534 5.95827 19.902C5.67793 18.5823 5.55536 15.7947 5.6835 13.6534C5.83253 11.1629 6.00573 10.4507 6.62731 9.77114C7.16029 9.18844 7.66593 9.02464 9.35072 8.88905C11.4156 8.72277 15.5467 8.66756 18.269 8.76972ZM13.1351 15.5037V18.4181L13.4188 18.2501C17.0238 16.1146 18.0011 15.5289 18.0011 15.5037C18.0011 15.4785 17.0238 14.8928 13.4188 12.7574L13.1351 12.5893V15.5037Z" fill="#171A1C"/>
</svg>
