<svg width="170" height="117" viewBox="0 0 170 117" fill="none" xmlns="http://www.w3.org/2000/svg">
<path fill-rule="evenodd" clip-rule="evenodd" d="M39.5474 0.237728C28.9605 2.12157 20.5999 9.81694 17.8804 20.1807C16.9254 23.8207 16.9291 29.3897 17.889 33.0476C19.0832 37.5991 21.3539 41.7304 24.3647 44.831L25.8754 46.3869L22.8021 47.9127C18.3687 50.114 14.6584 52.6929 11.0673 56.0683C2.32463 64.2863 -1.35779 72.6626 0.447215 80.226C1.86092 86.1514 5.86754 91.1942 11.0925 93.625C14.7138 95.3096 16.4195 95.5673 23.9508 95.5673H30.8566V94.4548C30.8566 90.9659 33.4594 84.2075 36.5752 79.6071C39.6633 75.0473 45.4464 68.9339 49.5646 65.8759C50.8734 64.9042 51.443 64.2721 51.3278 63.9201C51.2338 63.6341 50.6305 61.9155 49.9871 60.1009C48.2595 55.229 47.6849 51.4178 47.8968 46.2443C48.4333 33.1597 55.0391 22.5251 67.1303 15.2801L68.0282 14.7423L66.9643 12.8816C65.5947 10.4863 61.818 6.4544 59.448 4.85759C56.7458 3.03709 53.828 1.65044 51.062 0.871832C48.2486 0.0796953 42.2818 -0.248574 39.5474 0.237728ZM122.369 0.103781C114.519 1.35945 107.048 6.26206 103.2 12.6833L101.967 14.7393L102.868 15.2788C108.484 18.6446 112.882 22.6848 116.004 27.3446C122.48 37.0119 123.948 49.0034 120.013 60.1009C119.369 61.9155 118.766 63.6341 118.672 63.9201C118.557 64.2721 119.127 64.9042 120.435 65.8759C124.554 68.9339 130.337 75.0473 133.425 79.6071C136.541 84.2075 139.143 90.9659 139.143 94.4548V95.5673H146.049C153.58 95.5673 155.286 95.3096 158.907 93.625C164.132 91.1942 168.139 86.1514 169.553 80.226C171.358 72.6626 167.675 64.2863 158.933 56.0683C155.338 52.6896 151.631 50.114 147.184 47.9058L144.097 46.373L145.689 44.7227C150.38 39.8624 152.802 33.6958 152.802 26.6141C152.802 14.2471 144.843 4.01893 132.666 0.735245C130.672 0.197806 124.246 -0.196446 122.369 0.103781ZM82.3427 21.1978C81.8859 21.2777 80.6154 21.5024 79.5192 21.697C70.2534 23.3417 61.9877 30.9301 59.2679 40.2886C56.6763 49.2067 58.9135 58.9565 65.0928 65.6716C66.0418 66.703 66.7613 67.5938 66.6916 67.6508C66.6218 67.7082 64.9204 68.5993 62.9108 69.6313C58.1299 72.0866 54.2538 74.9968 50.392 79.0307C47.2521 82.3108 43.957 86.8221 42.794 89.4334C41.2428 92.916 40.7568 97.272 41.4796 101.214C41.9689 103.882 44.5044 108.632 46.5508 110.716C50.0499 114.278 53.8559 116.087 59.1164 116.688C62.7633 117.104 107.237 117.104 110.884 116.688C116.144 116.087 119.95 114.278 123.449 110.716C125.496 108.632 128.031 103.882 128.52 101.214C129.243 97.272 128.757 92.916 127.206 89.4334C126.043 86.8221 122.748 82.3108 119.608 79.0307C115.746 74.9968 111.87 72.0866 107.089 69.6313C105.08 68.5993 103.378 67.7082 103.308 67.6508C103.239 67.5938 103.95 66.7119 104.889 65.6911C113.736 56.0766 114.144 41.1788 105.839 30.9951C102.142 26.462 96.8614 23.1496 91.2302 21.8323C89.0604 21.3245 83.7743 20.9471 82.3427 21.1978Z" fill="#FFD400"/>
</svg>
