<svg width="51" height="50" viewBox="0 0 51 50" fill="none" xmlns="http://www.w3.org/2000/svg">
<path fill-rule="evenodd" clip-rule="evenodd" d="M24.7028 0.296816C23.0454 1.30086 0.500728 15.7771 0.306213 15.9621C0.168797 16.093 0.0522076 16.3465 0.019423 16.5859C-0.0304016 16.9505 -0.00190187 17.0224 0.315879 17.3343C0.893546 17.9012 1.16071 17.8436 2.80153 16.7992C3.56205 16.3151 4.20409 15.919 4.2283 15.919C4.25252 15.919 4.28411 23.1032 4.29846 31.8838L4.32457 47.8485L4.55306 48.2686C4.90532 48.916 5.43296 49.4296 6.05238 49.7281L6.6165 50H25.5H44.3835L44.9529 49.7256C45.6515 49.389 46.252 48.7404 46.5227 48.0304C46.7233 47.5041 46.7253 47.3458 46.7253 31.7089C46.7253 23.0245 46.7589 15.919 46.8 15.919C46.8412 15.919 47.3008 16.2088 47.8214 16.5629C49.6308 17.7934 50.0901 17.9172 50.6842 17.3343C51.002 17.0223 51.0304 16.9506 50.9805 16.5855C50.9438 16.3171 50.8309 16.0935 50.6439 15.9184C50.4891 15.7735 44.8715 12.1445 38.1602 7.8538C29.247 2.15528 25.8627 0.0406953 25.6044 0.00861903C25.3278 -0.0257064 25.1317 0.0369791 24.7028 0.296816ZM33.3126 14.6862C33.7412 14.862 33.9702 15.1891 33.9702 15.6256C33.9702 16.0622 33.7412 16.3893 33.3126 16.565C32.8192 16.7674 18.1808 16.7674 17.6874 16.565C17.2588 16.3893 17.0298 16.0622 17.0298 15.6256C17.0298 15.1976 17.2555 14.8655 17.6654 14.6904C18.1324 14.491 32.8269 14.4871 33.3126 14.6862ZM33.6789 20.1166C34.153 20.5818 34.0495 21.3873 33.4729 21.7216C33.2174 21.8697 32.4978 21.8844 25.5 21.8844C18.5023 21.8844 17.7826 21.8697 17.5271 21.7216C16.9505 21.3873 16.8471 20.5818 17.3211 20.1166L17.6124 19.8307H25.5H33.3876L33.6789 20.1166ZM37.159 38.6071V47.9952H36.1127H35.0663V44.8658V41.7365H30.8326H26.5989L26.5726 44.8414L26.5463 47.9463H25.5H24.4537L24.4274 44.8414L24.4011 41.7365H20.1674H15.9337V44.8658V47.9952H14.8874H13.8411V38.6071V29.2189H25.5H37.159V38.6071ZM20.6995 31.44C20.5529 31.5293 20.3848 31.7062 20.3258 31.8332C20.2553 31.9852 20.2186 33.3488 20.2186 35.8246V39.585H25.5H30.7814V35.8151C30.7814 31.726 30.7694 31.6279 30.2361 31.3894C30.0456 31.3042 28.7555 31.2733 25.4704 31.2752C21.4512 31.2775 20.9373 31.2953 20.6995 31.44Z" fill="#FFD400"/>
</svg>
