<svg width="46" height="57" viewBox="0 0 46 57" fill="none" xmlns="http://www.w3.org/2000/svg">
<path fill-rule="evenodd" clip-rule="evenodd" d="M22.2146 0.224611C21.7516 0.496862 19.0124 3.67168 18.3097 4.75089C17.3621 6.20601 16.6591 7.89509 16.237 9.73181C16.0284 10.6398 16.0023 11.1933 15.9602 15.6201L15.9137 20.5063L15.1921 20.4488C14.2226 20.3716 13.395 19.9558 12.6924 19.1929C12.0816 18.5298 11.8265 17.9232 11.7105 16.8582C11.6151 15.9822 11.3101 15.4945 10.687 15.2209C9.90144 14.8762 9.38906 15.014 8.6656 15.7649C7.53322 16.94 6.0753 19.3772 5.34723 21.3122C3.07619 27.3482 4.17311 34.1784 8.24422 39.351C8.6298 39.8409 9.45381 40.7303 10.0753 41.3274L11.2053 42.4131H13.5799C15.4363 42.4131 15.9416 42.3827 15.8954 42.2739C15.3849 41.0729 15.2305 40.5898 15.0782 39.7167C14.705 37.5758 15.2352 35.4588 16.5874 33.6914C17.4645 32.5448 21.9679 27.4005 22.2043 27.2749C22.318 27.2146 22.6066 27.1351 22.8459 27.0981C23.6257 26.9779 24.0013 27.3002 26.6235 30.3405C29.6118 33.8051 29.7787 34.0215 30.3114 35.1197C31.2931 37.1432 31.3269 39.6274 30.3997 41.6183C30.2183 42.008 30.0698 42.3462 30.0698 42.3699C30.0698 42.3937 31.1372 42.4131 32.4417 42.4131H34.8137L35.625 41.6926C38.5188 39.1226 40.6506 35.3633 41.5306 31.2781C41.7432 30.2915 41.7837 29.7525 41.7895 27.8262C41.7973 25.2931 41.614 24.0295 40.9445 21.9995C40.4787 20.587 39.3008 18.275 38.4504 17.1043C37.1977 15.3799 24.1488 0.36057 23.7333 0.164927C23.2261 -0.0739191 22.6865 -0.0527626 22.2146 0.224611ZM9.19638 4.47051C8.44644 4.97693 8.35981 5.20163 8.3184 6.74807C8.28866 7.85656 8.31997 8.24885 8.4691 8.63634C8.95994 9.91186 10.7174 10.0498 11.4424 8.86985C11.6371 8.55317 11.6655 8.30708 11.6658 6.93669C11.6663 5.48914 11.6464 5.33681 11.4115 4.98806C10.9091 4.24168 9.88831 4.00328 9.19638 4.47051ZM35.8405 4.77282C35.0521 5.17046 34.8951 5.60082 34.8951 7.36428C34.8951 8.736 34.9167 8.89512 35.1476 9.23185C35.5586 9.83091 35.9455 10.0531 36.5784 10.0531C37.1852 10.0531 37.5588 9.85118 37.9741 9.29921C38.1835 9.02095 38.2055 8.83455 38.2055 7.33778C38.2055 5.84101 38.1835 5.65461 37.9741 5.37634C37.3927 4.60368 36.6132 4.38321 35.8405 4.77282ZM21.0424 33.6115C19.9966 34.8301 19.003 36.0939 18.8345 36.4199C18.4123 37.2369 18.2377 38.3085 18.3905 39.1437C18.5718 40.1329 19.2005 41.3042 19.872 41.9034L20.4434 42.4131H23.019H25.5946L26.1866 41.8576C27.2509 40.8587 27.7873 39.5085 27.6799 38.099C27.5794 36.7795 27.2342 36.2011 25.0164 33.6347C23.9492 32.3998 23.0463 31.3909 23.01 31.3927C22.9738 31.3944 22.0883 32.3929 21.0424 33.6115ZM3.53056 47.0761C2.66379 47.3866 2.31671 47.5934 1.6645 48.1873C-1.33584 50.9201 -0.0883222 55.806 3.87113 56.8293C4.44748 56.9783 6.32677 57 18.6425 57H32.7534L32.2488 55.9646C30.9924 53.3856 31.0111 50.339 32.2996 47.7177L32.7177 46.8671L18.4047 46.8711C4.89522 46.8749 4.06011 46.8864 3.53056 47.0761ZM39.3262 47.0614C38.462 47.3672 37.8088 47.7898 37.1783 48.4513C36.1501 49.5303 35.7353 50.6756 35.8206 52.201C35.8869 53.3855 36.193 54.1972 36.9002 55.0641C38.8325 57.4324 42.3477 57.6309 44.5064 55.4934C46.9897 53.0347 46.2775 48.8945 43.1033 47.3379C42.3146 46.9511 42.1864 46.923 41.0751 46.8937C40.1591 46.8696 39.7606 46.9078 39.3262 47.0614Z" fill="black"/>
</svg>
