<svg width="39" height="39" viewBox="0 0 39 39" fill="none" xmlns="http://www.w3.org/2000/svg">
<path fill-rule="evenodd" clip-rule="evenodd" d="M17.6478 0.0473453C11.5413 0.682187 6.19832 3.99917 2.9472 9.17383C-0.822193 15.1735 -0.988872 22.9918 2.52207 29.1176C4.37004 32.3418 7.08069 34.9928 10.2801 36.7049C13.0023 38.1616 16.0075 38.965 18.8294 38.9907L19.8592 39L19.8787 31.426L19.8981 23.852H17.8H15.7018V21.4113V18.9705L17.7805 18.9502L19.8592 18.9299L19.9024 16.3734C19.9416 14.053 19.9611 13.7606 20.1138 13.2065C20.6947 11.098 22.0962 9.69535 24.2074 9.1095C24.7565 8.9571 24.9974 8.93985 26.6103 8.93764C27.5963 8.93627 28.7376 8.96367 29.1467 8.99846L29.8905 9.06173V11.2616V13.4614L28.0788 13.4869C26.2775 13.5122 26.2647 13.5136 25.8733 13.7197C25.0328 14.1625 24.9321 14.5172 24.9321 17.0342V18.968H27.335C28.6566 18.968 29.7378 18.9938 29.7376 19.0253C29.7375 19.0567 29.6002 20.1278 29.4325 21.4052C29.2648 22.6827 29.1277 23.7559 29.1277 23.79C29.1277 23.8241 28.1837 23.852 27.0299 23.852H24.9321V31.0635C24.9321 35.0299 24.9454 38.275 24.9617 38.275C25.1072 38.275 26.9229 37.5881 27.6103 37.2731C29.9046 36.2215 31.6861 34.9551 33.5153 33.0758C35.1068 31.4407 36.0946 30.0271 37.1081 27.9347C38.0091 26.0744 38.6238 24.0001 38.9058 21.8679C39.0314 20.9188 39.0314 17.9816 38.9059 17.0984C38.2647 12.5861 36.402 8.78983 33.3132 5.69979C30.2875 2.67294 26.5161 0.785361 22.224 0.149604C21.2882 0.0109443 18.5799 -0.0494949 17.6478 0.0473453Z" fill="#FFD400"/>
</svg>
