<svg width="30" height="31" viewBox="0 0 30 31" fill="none" xmlns="http://www.w3.org/2000/svg">
<path fill-rule="evenodd" clip-rule="evenodd" d="M13.8871 0.0199609C13.7879 0.034119 13.4496 0.0759101 13.1354 0.112858C10.5199 0.420112 7.9077 1.54649 5.6786 3.32835C5.01904 3.85555 3.71266 5.20535 3.19934 5.89003C1.53726 8.10688 0.524877 10.556 0.10423 13.3777C-0.0347432 14.3102 -0.0347432 16.7056 0.10423 17.6381C0.777386 22.154 3.06722 25.9213 6.64077 28.3923C8.62656 29.7655 10.6633 30.555 13.1655 30.9214C13.9778 31.0403 16.1873 31.0208 17.0743 30.8868C19.3154 30.5483 21.4688 29.7 23.2983 28.4349C27.0071 25.8702 29.2875 22.0741 29.9258 17.4018C30.0265 16.6654 30.0242 14.3403 29.9221 13.5829C29.3904 9.63819 27.5527 6.14003 24.7115 3.66374C22.5643 1.79239 19.886 0.550578 17.1043 0.136703C16.4552 0.0401423 14.2944 -0.0382859 13.8871 0.0199609ZM19.4278 6.07328C20.2685 6.17009 20.8469 6.33905 21.5243 6.68592C22.7378 7.3072 23.485 8.19897 23.9358 9.5638C24.2502 10.5158 24.2604 10.7034 24.2604 15.5079C24.2604 19.1464 24.2443 20.058 24.1722 20.483C23.7325 23.0757 22.0721 24.6343 19.4195 24.9444C18.7008 25.0284 11.2921 25.0279 10.5811 24.9438C8.63708 24.7139 7.17375 23.7903 6.42579 22.3213C6.14604 21.7718 5.93646 21.1285 5.82702 20.483C5.69706 19.7169 5.69706 11.2988 5.82702 10.5328C5.99846 9.52188 6.39403 8.58329 6.93615 7.90103C7.69945 6.9404 9.0451 6.24969 10.4896 6.07707C11.1601 5.99696 18.7369 5.99373 19.4278 6.07328ZM12.6844 7.81373C10.2292 7.85446 10.0746 7.87539 9.25035 8.27821C8.47917 8.65501 7.83686 9.52927 7.56571 10.5712C7.45987 10.9779 7.4526 11.2962 7.4526 15.5079C7.4526 19.7196 7.45987 20.0379 7.56571 20.4446C7.83686 21.4865 8.47917 22.3608 9.25035 22.7376C10.0759 23.141 10.2245 23.1608 12.7295 23.2018C13.9781 23.2222 16.0212 23.2222 17.2697 23.2018C19.7747 23.1608 19.9233 23.141 20.7488 22.7376C21.52 22.3608 22.1623 21.4865 22.4335 20.4446C22.5393 20.0379 22.5466 19.7196 22.5466 15.5079C22.5466 11.2962 22.5393 10.9779 22.4335 10.5712C22.1623 9.52927 21.52 8.65501 20.7488 8.27821C19.9901 7.90743 19.6957 7.85775 18.0966 7.83105C17.3028 7.81776 16.2609 7.80013 15.7814 7.79187C15.3018 7.78361 13.9081 7.79342 12.6844 7.81373ZM20.3156 9.57106C20.4259 9.61869 20.5942 9.76319 20.6895 9.89223C20.8341 10.088 20.8628 10.1861 20.8628 10.4842C20.8628 10.7495 20.8304 10.8867 20.737 11.0169C20.2863 11.645 19.4334 11.63 19.0701 10.9877C18.9194 10.7212 18.9178 10.2448 19.0669 9.98227C19.3056 9.56163 19.8659 9.37707 20.3156 9.57106ZM16.1257 10.6014C18.3481 11.1516 19.8697 13.1457 19.8697 15.5079C19.8697 18.3262 17.7289 20.5369 14.9996 20.5369C12.2736 20.5369 10.1295 18.3228 10.1295 15.5079C10.1295 13.1585 11.6407 11.1643 13.8454 10.6045C14.4878 10.4413 15.4739 10.44 16.1257 10.6014ZM14.0374 12.4202C12.9977 12.7876 12.2732 13.5629 11.9685 14.6343C11.9133 14.8284 11.8726 15.1993 11.8726 15.5079C11.8726 16.4126 12.1826 17.1963 12.7825 17.8078C13.3903 18.4272 14.1293 18.7369 14.9996 18.7369C15.8758 18.7369 16.6347 18.4167 17.2268 17.7973C17.8267 17.1697 18.1266 16.4066 18.1266 15.5079C18.1266 14.8987 18.0235 14.4709 17.7451 13.9252C17.3836 13.2169 16.6551 12.6234 15.8456 12.3779C15.3557 12.2293 14.5225 12.2488 14.0374 12.4202Z" fill="#171A1C"/>
</svg>
