<svg width="39" height="39" viewBox="0 0 39 39" fill="none" xmlns="http://www.w3.org/2000/svg">
<path fill-rule="evenodd" clip-rule="evenodd" d="M17.6485 0.0473512C11.5463 0.68189 6.19837 4.0028 2.94961 9.17498C-1.65614 16.5076 -0.796303 26.1944 5.02664 32.574C8.24954 36.105 12.2802 38.216 17.1138 38.9045C18.0162 39.0331 21.0151 39.0314 21.9572 38.9019C26.3717 38.2949 30.3253 36.3371 33.3322 33.2688C34.3191 32.2618 34.5293 32.021 35.1839 31.148C37.1344 28.5464 38.4115 25.375 38.9043 21.9088C39.0319 21.0108 39.0319 17.9981 38.9042 17.1005C38.5755 14.7899 37.9778 12.8212 37.0189 10.8903C36.0028 8.84458 34.9602 7.38615 33.3373 5.74057C30.3269 2.68793 26.5575 0.791641 22.2242 0.149622C21.2885 0.0109457 18.5805 -0.0495012 17.6485 0.0473512ZM23.7496 11.0329C28.4469 11.2035 29.4496 11.383 30.3349 12.2116C31.064 12.894 31.366 13.8037 31.5778 15.9557C31.7083 17.2816 31.7097 21.5249 31.5801 22.901C31.3845 24.976 31.1931 25.7646 30.7381 26.3705C30.1044 27.2145 29.4751 27.5303 28.0771 27.706C24.3172 28.1787 13.4068 28.1333 10.499 27.6329C9.00778 27.3763 8.06373 26.4865 7.74575 25.038C7.38131 23.3777 7.22197 19.8707 7.38855 17.1769C7.58229 14.0437 7.80745 13.1477 8.6155 12.2927C9.30838 11.5597 9.96571 11.3536 12.1559 11.183C14.8403 10.9738 20.2107 10.9044 23.7496 11.0329ZM17.0756 19.5047V23.1712L17.4444 22.9598C22.131 20.2732 23.4014 19.5363 23.4014 19.5047C23.4014 19.473 22.131 18.7361 17.4444 16.0496L17.0756 15.8382V19.5047Z" fill="#FFD400"/>
</svg>
