<svg width="39" height="61" viewBox="0 0 39 61" fill="none" xmlns="http://www.w3.org/2000/svg">
<path fill-rule="evenodd" clip-rule="evenodd" d="M8.00812 0.834153C7.73807 0.976016 7.47382 1.24635 7.32857 1.52949C7.10214 1.97083 7.09091 2.21624 7.09091 6.69888V11.4049H4.24982C1.63564 11.4049 1.3715 11.4239 0.942382 11.6415C0.642082 11.7939 0.391064 12.0435 0.2379 12.3422C0.0137092 12.7794 0 13.0293 0 16.694C0 20.2795 0.0174913 20.616 0.224191 21.019C0.586773 21.7259 1.18312 21.983 2.45913 21.983H3.52714L3.57689 27.4778C3.62239 32.4986 3.64768 33.0637 3.87022 34.0303C4.60685 37.2309 5.91536 39.6091 8.21245 41.9226C10.6527 44.3802 13.6751 45.9417 16.9886 46.4567C17.6977 46.5669 17.8455 46.6276 17.8455 46.8087C17.8455 47.2247 18.2124 48.8427 18.5192 49.7799C19.313 52.2047 20.5671 54.221 22.4394 56.083C25.2778 58.9058 28.7915 60.486 32.7689 60.728C33.8629 60.7945 34.0308 60.777 34.4803 60.5488C35.3684 60.0983 35.6824 59.0885 35.2166 58.1805C34.8751 57.5148 34.3507 57.2922 32.9113 57.2022C27.5334 56.8658 22.9734 53.0791 21.6424 47.8444C21.504 47.3006 21.3909 46.793 21.3909 46.7166C21.3909 46.6343 21.8211 46.4993 22.4444 46.3858C23.0238 46.2804 24.0475 46.0053 24.7194 45.7743C27.0526 44.9721 28.8074 43.869 30.6847 42.0238C32.6158 40.1259 33.8984 38.0755 34.6658 35.6594C35.3605 33.4724 35.3678 33.3935 35.4223 27.4778L35.4729 21.983H36.5321C37.8386 21.983 38.4029 21.7458 38.7621 21.0458C38.9863 20.6086 39 20.3587 39 16.694C39 13.0293 38.9863 12.7794 38.7621 12.3422C38.6089 12.0435 38.3579 11.7939 38.0576 11.6415C37.6285 11.4239 37.3644 11.4049 34.7502 11.4049H31.9091V6.69888C31.9091 2.21436 31.8979 1.97106 31.6712 1.52902C31.4036 1.00752 30.7228 0.591797 30.1364 0.591797C29.5499 0.591797 28.8691 1.00752 28.6015 1.52902C28.3749 1.97106 28.3636 2.21436 28.3636 6.69888V11.4049H19.5H10.6364V6.69888C10.6364 2.21436 10.6251 1.97106 10.3985 1.52902C9.96237 0.67889 8.89484 0.368599 8.00812 0.834153ZM20.3268 22.232C21.0999 22.664 21.4559 23.6041 21.1498 24.4047C21.0823 24.5815 20.5719 25.1887 20.0156 25.754L19.0042 26.7818L21.6449 28.1142C24.0682 29.3368 24.3074 29.4851 24.5499 29.9166C24.8754 30.4955 24.8885 31.0249 24.5914 31.5962C24.3028 32.1513 20.6146 35.7941 20.1719 35.9615C19.0461 36.3867 17.7273 35.4766 17.7273 34.2742C17.7273 33.6739 17.872 33.4544 19.0673 32.2415C19.591 31.7102 19.9955 31.2574 19.9665 31.2353C19.9374 31.2134 18.7569 30.6247 17.3431 29.9274C14.6771 28.6127 14.3776 28.3928 14.226 27.6388C14.0506 26.7666 14.2104 26.511 16.1713 24.5292C17.1895 23.5 18.2301 22.5062 18.4836 22.3205C19.0494 21.9063 19.6892 21.8756 20.3268 22.232Z" fill="#FFD400"/>
</svg>
