<svg width="48" height="58" viewBox="0 0 48 58" fill="none" xmlns="http://www.w3.org/2000/svg">
<path fill-rule="evenodd" clip-rule="evenodd" d="M23.1805 0.228551C22.6974 0.505579 19.8391 3.7361 19.1058 4.83424C18.1169 6.31489 17.3834 8.0336 16.9429 9.90254C16.7252 10.8264 16.6981 11.3897 16.6542 15.8942L16.6056 20.866L15.8526 20.8076C14.8409 20.7289 13.9774 20.3059 13.2442 19.5296C12.6069 18.8549 12.3407 18.2376 12.2196 17.154C12.1201 16.2626 11.8018 15.7664 11.1516 15.488C10.3319 15.1372 9.79728 15.2774 9.04236 16.0415C7.86075 17.2372 6.33944 19.7171 5.57972 21.6861C3.20994 27.828 4.35455 34.778 8.60267 40.0414C9.00501 40.5399 9.86484 41.4448 10.5133 42.0525L11.6925 43.1572H14.1703C16.1075 43.1572 16.6347 43.1263 16.5865 43.0156C16.0538 41.7935 15.8927 41.3019 15.7338 40.4134C15.3443 38.2351 15.8976 36.0809 17.3086 34.2825C18.2238 33.1158 22.923 27.8812 23.1697 27.7534C23.2883 27.692 23.5895 27.6111 23.8392 27.5735C24.6529 27.4511 25.0448 27.7792 27.7811 30.8728C30.8992 34.3981 31.0735 34.6184 31.6293 35.7358C32.6537 37.7949 32.6889 40.3226 31.7215 42.3484C31.5321 42.745 31.3772 43.0891 31.3772 43.1132C31.3772 43.1375 32.491 43.1572 33.8523 43.1572H36.3273L37.1739 42.424C40.1936 39.809 42.418 35.9837 43.3363 31.8268C43.5581 30.823 43.6004 30.2745 43.6064 28.3144C43.6145 25.7369 43.4233 24.4511 42.7247 22.3854C42.2387 20.9482 41.0095 18.5957 40.1222 17.4044C38.815 15.6498 25.1988 0.366895 24.7652 0.167821C24.2359 -0.075216 23.6729 -0.0536882 23.1805 0.228551ZM9.59622 4.54894C8.81367 5.06424 8.72327 5.29289 8.68007 6.86645C8.64904 7.99439 8.68171 8.39356 8.83733 8.78786C9.3495 10.0858 11.1833 10.2261 11.9399 9.02546C12.1431 8.70322 12.1727 8.45282 12.173 7.05839C12.1735 5.58544 12.1528 5.43044 11.9077 5.07557C11.3835 4.3161 10.3182 4.07352 9.59622 4.54894ZM37.3987 4.85656C36.5761 5.26117 36.4123 5.69908 36.4123 7.49348C36.4123 8.88927 36.4348 9.05118 36.6758 9.39381C37.1046 10.0034 37.5083 10.2294 38.1688 10.2294C38.8019 10.2294 39.1918 10.024 39.6252 9.46236C39.8437 9.17921 39.8666 8.98954 39.8666 7.46651C39.8666 5.94348 39.8437 5.75381 39.6252 5.47066C39.0185 4.68445 38.2051 4.46011 37.3987 4.85656ZM21.9573 34.2012C20.866 35.4411 19.8292 36.7271 19.6533 37.0589C19.2128 37.8902 19.0306 38.9806 19.1901 39.8304C19.3792 40.837 20.0353 42.0288 20.736 42.6385L21.3323 43.1572H24.0198H26.7074L27.3251 42.5919C28.4358 41.5755 28.9955 40.2017 28.8834 38.7674C28.7785 37.4247 28.4183 36.8362 26.104 34.2248C24.9905 32.9683 24.0483 31.9416 24.0105 31.9434C23.9727 31.9452 23.0487 32.9612 21.9573 34.2012ZM3.68406 47.902C2.77961 48.2179 2.41743 48.4283 1.73687 49.0327C-1.39392 51.8134 -0.0921623 56.785 4.03944 57.8263C4.64085 57.9779 6.60185 58 19.453 58H34.1774L33.651 56.9464C32.3398 54.3222 32.3594 51.2222 33.7039 48.5549L34.1402 47.6894L19.2049 47.6934C5.10806 47.6973 4.23663 47.709 3.68406 47.902ZM41.0361 47.8871C40.1342 48.1982 39.4527 48.6282 38.7948 49.3013C37.7218 50.3992 37.289 51.5647 37.378 53.1168C37.4472 54.322 37.7667 55.148 38.5046 56.0301C40.5209 58.44 44.1889 58.642 46.4415 56.467C49.0328 53.9651 48.2896 49.7523 44.9774 48.1684C44.1543 47.7748 44.0206 47.7462 42.861 47.7164C41.9052 47.6918 41.4894 47.7307 41.0361 47.8871Z" fill="#FFD400"/>
</svg>
