<svg width="30" height="31" viewBox="0 0 30 31" fill="none" xmlns="http://www.w3.org/2000/svg">
<path fill-rule="evenodd" clip-rule="evenodd" d="M13.5753 0.0376334C8.87791 0.542251 4.76794 3.17883 2.26708 7.29202C-0.632456 12.061 -0.760671 18.2755 1.94005 23.1447C3.36157 25.7076 5.44669 27.8148 7.90776 29.1757C10.0018 30.3336 12.3135 30.9722 14.4842 30.9926L15.2763 31L15.2913 24.9797L15.3063 18.9593H13.6923H12.0783V17.0192V15.0791L13.6773 15.063L15.2763 15.0468L15.3095 13.0148C15.3397 11.1703 15.3547 10.9379 15.4721 10.4975C15.919 8.82152 16.9971 7.70656 18.6211 7.24088C19.0434 7.11975 19.2288 7.10604 20.4695 7.10428C21.2279 7.10319 22.1059 7.12496 22.4206 7.15262L22.9927 7.20291V8.95151V10.7001L21.599 10.7204C20.2134 10.7404 20.2037 10.7415 19.9025 10.9054C19.256 11.2574 19.1785 11.5393 19.1785 13.54V15.0772H21.0269C22.0435 15.0772 22.8752 15.0977 22.8751 15.1227C22.875 15.1476 22.7694 15.999 22.6404 17.0144C22.5114 18.0298 22.4059 18.8829 22.4059 18.91C22.4059 18.9371 21.6797 18.9593 20.7922 18.9593H19.1785V24.6915C19.1785 27.8442 19.1888 30.4237 19.2013 30.4237C19.3132 30.4237 20.7099 29.8778 21.2387 29.6273C23.0035 28.7914 24.3739 27.7849 25.781 26.291C27.0052 24.9914 27.7651 23.8677 28.5447 22.2045C29.2378 20.7258 29.7106 19.077 29.9276 17.3822C30.0241 16.6278 30.0241 14.2931 29.9276 13.591C29.4344 10.0043 28.0016 6.98678 25.6255 4.5306C23.2981 2.12465 20.397 0.624261 17.0954 0.118916C16.3756 0.00869933 14.2922 -0.0393421 13.5753 0.0376334Z" fill="#171A1C"/>
</svg>
