<svg width="39" height="39" viewBox="0 0 39 39" fill="none" xmlns="http://www.w3.org/2000/svg">
<path fill-rule="evenodd" clip-rule="evenodd" d="M17.6485 0.0473512C11.5463 0.68189 6.19837 4.0028 2.94961 9.17498C-1.65614 16.5076 -0.796303 26.1944 5.02664 32.574C8.24954 36.105 12.2802 38.216 17.1138 38.9045C18.0162 39.0331 21.0151 39.0314 21.9572 38.9019C26.3717 38.2949 30.3253 36.3371 33.3322 33.2688C34.3191 32.2618 34.5293 32.021 35.1839 31.148C37.1344 28.5464 38.4115 25.375 38.9043 21.9088C39.0319 21.0108 39.0319 17.9981 38.9042 17.1005C38.5755 14.7899 37.9778 12.8212 37.0189 10.8903C36.0028 8.84458 34.9602 7.38615 33.3373 5.74057C30.3269 2.68793 26.5575 0.791641 22.2242 0.149622C21.2885 0.0109457 18.5805 -0.0495012 17.6485 0.0473512ZM25.0494 10.9198C25.6747 11.0792 26.3595 11.4362 26.8305 11.8486L27.2261 12.1949L27.738 12.0664C28.3562 11.9113 29.2728 11.5523 29.7257 11.2877L30.0574 11.0939L30.004 11.2734C29.8238 11.8788 29.1019 12.8615 28.5412 13.2643C28.3536 13.3992 28.238 13.5222 28.2845 13.5377C28.4107 13.5798 29.4777 13.3299 30.0395 13.1265C30.3106 13.0284 30.5465 12.9621 30.5636 12.9793C30.6644 13.0801 29.1416 14.7122 28.6398 15.0412C28.4738 15.1501 28.461 15.2185 28.4161 16.2431C28.3308 18.1893 27.8602 19.9399 26.9442 21.718C26.2863 22.9952 25.5926 23.9536 24.625 24.9218C22.8693 26.6785 20.7743 27.7913 18.2622 28.3013C17.5327 28.4494 17.1871 28.4721 15.7027 28.4695C14.2115 28.4669 13.8815 28.4438 13.1856 28.2932C12.0478 28.047 11.1496 27.7341 10.0965 27.217C8.73197 26.547 8.73678 26.5654 9.92353 26.5593C11.5079 26.5514 12.6415 26.2761 14.0343 25.5609C14.3963 25.3751 14.8567 25.1062 15.0574 24.9634C15.398 24.7211 15.4101 24.7013 15.2384 24.6692C15.1372 24.6502 14.8565 24.5984 14.6147 24.554C13.2551 24.3042 11.9235 23.2033 11.4152 21.9088L11.2953 21.6035L12.107 21.6022C13.2324 21.6005 13.3637 21.5312 12.6886 21.2951C11.0651 20.7274 9.94176 19.2772 9.71149 17.4515C9.66329 17.0692 9.66984 17.0436 9.80172 17.0987C10.2681 17.2932 10.9844 17.509 11.2919 17.5475L11.6482 17.592L11.1 17.041C9.95572 15.8908 9.50593 14.3437 9.86854 12.8051C9.95633 12.4322 10.2051 11.804 10.3202 11.6644C10.328 11.655 10.7614 12.0685 11.2833 12.5834C12.996 14.273 14.9347 15.3635 17.2663 15.9488C17.7066 16.0594 19.5208 16.3224 19.5579 16.2811C19.5678 16.2701 19.5421 16.0403 19.5008 15.7706C19.4174 15.2274 19.5031 14.4356 19.7131 13.8068C20.1618 12.4641 21.333 11.3646 22.7581 10.9485C23.3387 10.779 24.4424 10.7651 25.0494 10.9198Z" fill="#FFD400"/>
</svg>
