<svg width="30" height="31" viewBox="0 0 30 31" fill="none" xmlns="http://www.w3.org/2000/svg">
<path fill-rule="evenodd" clip-rule="evenodd" d="M13.5758 0.0376381C8.88181 0.542015 4.76797 3.18172 2.26893 7.29293C-1.27396 13.1214 -0.612541 20.8212 3.86665 25.8922C6.3458 28.6989 9.44629 30.3768 13.1644 30.9241C13.8586 31.0263 16.1654 31.025 16.8902 30.922C20.2859 30.4396 23.3272 28.8833 25.6402 26.4444C26.3993 25.644 26.561 25.4526 27.0645 24.7587C28.5649 22.6908 29.5473 20.1698 29.9264 17.4147C30.0245 16.7009 30.0245 14.3062 29.9263 13.5927C29.6735 11.7561 29.2137 10.1912 28.4761 8.6564C27.6945 7.03031 26.8925 5.87104 25.6441 4.56302C23.3284 2.13656 20.4289 0.629253 17.0955 0.118931C16.3758 0.00870042 14.2927 -0.0393471 13.5758 0.0376381ZM19.2687 8.67988C19.7498 8.80655 20.2765 9.09034 20.6389 9.41812L20.9431 9.69336L21.3369 9.59126C21.8124 9.46799 22.5176 9.18262 22.8659 8.97229L23.1211 8.81826L23.08 8.96088C22.9414 9.44215 22.3861 10.2232 21.9548 10.5434C21.8104 10.6506 21.7215 10.7484 21.7573 10.7607C21.8544 10.7942 22.6752 10.5955 23.1073 10.4339C23.3159 10.3559 23.4973 10.3032 23.5105 10.3169C23.588 10.397 22.4166 11.6943 22.0306 11.9558C21.9029 12.0424 21.8931 12.0968 21.8585 12.9112C21.7929 14.4581 21.4309 15.8497 20.7263 17.263C20.2202 18.2783 19.6866 19.0401 18.9423 19.8096C17.5918 21.206 15.9803 22.0905 14.0479 22.4959C13.4867 22.6136 13.2209 22.6317 12.079 22.6296C10.9319 22.6275 10.6781 22.6092 10.1428 22.4895C9.26752 22.2938 8.57665 22.045 7.76656 21.634C6.7169 21.1014 6.7206 21.1161 7.63349 21.1113C8.85223 21.1049 9.72423 20.8861 10.7956 20.3176C11.074 20.17 11.4282 19.9562 11.5826 19.8427C11.8446 19.6501 11.8539 19.6344 11.7219 19.6089C11.644 19.5938 11.4281 19.5526 11.2421 19.5173C10.1962 19.3188 9.17194 18.4436 8.78089 17.4147L8.68866 17.172L9.31305 17.171C10.1788 17.1696 10.2798 17.1145 9.76049 16.9269C8.51164 16.4756 7.64751 15.3229 7.47038 13.8717C7.4333 13.5678 7.43834 13.5475 7.53979 13.5913C7.89851 13.7459 8.44956 13.9174 8.68607 13.948L8.96019 13.9834L8.53845 13.5454C7.65825 12.6312 7.31225 11.4014 7.59118 10.1784C7.65872 9.88197 7.85005 9.38269 7.93858 9.27174C7.94463 9.26421 8.27801 9.5929 8.67944 10.0022C9.99694 11.3452 11.4882 12.212 13.2818 12.6773C13.6204 12.7651 15.016 12.9742 15.0445 12.9414C15.0522 12.9326 15.0324 12.75 15.0006 12.5356C14.9365 12.1038 15.0024 11.4745 15.1639 10.9746C15.5091 9.90733 16.41 9.03344 17.5062 8.70263C17.9528 8.56789 18.8018 8.55691 19.2687 8.67988Z" fill="#171A1C"/>
</svg>
