<svg width="150" height="128" viewBox="0 0 150 128" fill="none" xmlns="http://www.w3.org/2000/svg">
<path fill-rule="evenodd" clip-rule="evenodd" d="M101.074 57.0867V114.173L119.312 114.366C129.342 114.471 140.35 114.558 143.774 114.558L150 114.559V110.643V106.728H129.492H108.984V53.364V0H105.029H101.074V57.0867ZM15.4521 10.6122C15.3322 10.7305 15.2344 22.4862 15.2344 36.7362V62.6447H7.61719H0V88.4566V114.268H4.98047H9.96094V115.223C9.96094 116.748 10.7877 119.473 11.7615 121.158C15.411 127.473 23.3376 129.799 30.0135 126.515C33.6287 124.736 36.5358 120.678 37.2252 116.448L37.5803 114.268H45.5968H53.6133V115.223C53.6133 116.748 54.44 119.473 55.4139 121.158C59.0634 127.473 66.9899 129.799 73.6658 126.515C77.2811 124.736 80.1882 120.678 80.8775 116.448L81.2326 114.268H88.8097H96.3867V102.666V91.0644L80.2263 57.9306C71.3382 39.7071 63.6085 24.079 63.0492 23.2017C59.3306 17.3679 54.3076 13.2273 48.6817 11.3575L46.4355 10.611L31.0526 10.5037C22.592 10.4448 15.5716 10.4936 15.4521 10.6122ZM44.5312 19.7284C47.6013 20.2 50.9962 22.0196 53.5107 24.5416C55.5832 26.6199 55.7329 26.8763 61.3688 37.9911L67.1139 49.3222L66.111 50.5455C63.9293 53.2074 62.6265 56.9512 62.6074 60.6145C62.5969 62.6423 62.7264 63.104 64.522 67.43L66.4477 72.0704L61.004 72.1495C58.0099 72.193 55.4675 72.1278 55.3541 72.0045C55.2407 71.8813 54.2707 69.3021 53.1984 66.2731C52.1262 63.2441 50.9569 60.3384 50.6001 59.8161C49.4004 58.0606 46.8923 56.8709 44.3487 56.8512C41.9341 56.8326 39.2244 54.6876 37.9286 51.7688C37.5038 50.8118 36.8335 49.6076 36.4392 49.0925C35.5553 47.9385 33.4292 46.6743 31.9096 46.3991L30.7708 46.1929L30.6929 54.3463L30.6152 62.4996H26.8066H22.998L22.923 40.9655L22.8478 19.4314L32.7375 19.4338C38.1768 19.4349 43.4839 19.5675 44.5312 19.7284ZM113.379 44.0833V61.7746H131.396H149.414V44.0833V26.392H131.396H113.379V44.0833ZM113.379 84.2513V102.088H131.396H149.414V84.2513V66.4149H131.396H113.379V84.2513ZM26.0534 109.556C28.6863 110.885 29.7293 114.052 28.4174 116.735C26.272 121.122 19.8261 120.485 18.5892 115.765C18.1553 114.109 18.3691 112.772 19.3081 111.268C20.5392 109.296 23.8658 108.452 26.0534 109.556ZM69.7058 109.556C72.3387 110.885 73.3816 114.052 72.0697 116.735C69.9574 121.054 63.5947 120.516 62.2626 115.905C61.7687 114.196 61.9708 112.853 62.9604 111.268C64.1915 109.296 67.5182 108.452 69.7058 109.556Z" fill="#FFD400"/>
</svg>
