<svg width="16" height="23" viewBox="0 0 16 23" fill="none" xmlns="http://www.w3.org/2000/svg">
<path fill-rule="evenodd" clip-rule="evenodd" d="M7.11237 0.0493733C6.21412 0.152067 5.35128 0.410102 4.51023 0.827613C2.8389 1.65725 1.59436 2.91881 0.794901 4.59361C-0.65594 7.63299 -0.139603 10.8958 2.49919 15.3631C3.24995 16.6341 3.94937 17.6863 5.70948 20.1923C6.29948 21.0324 6.9542 21.9726 7.16437 22.2816C7.5647 22.8702 7.71612 23 8.002 23C8.28788 23 8.43929 22.8702 8.83962 22.2816C9.04979 21.9726 9.70473 21.0324 10.295 20.1923C12.0198 17.7376 12.7802 16.5927 13.5132 15.3468C15.884 11.3172 16.5099 8.38221 15.6027 5.54858C15.4339 5.02132 14.9747 4.08159 14.6362 3.57095C12.999 1.10052 10.0386 -0.285076 7.11237 0.0493733ZM9.31419 1.48308C12.3429 2.12516 14.5163 4.69029 14.6612 7.79368C14.731 9.28776 14.2856 10.9411 13.2513 13.0272C12.4374 14.6689 11.538 16.0888 9.15851 19.4884C8.53466 20.3798 8.01423 21.1095 8.002 21.11C7.98976 21.1106 7.86606 20.9447 7.7271 20.7415C7.58814 20.5383 7.04076 19.7555 6.51072 19.0019C5.4615 17.5103 4.41762 15.9517 3.92312 15.1385C2.07542 12.1002 1.25123 9.75419 1.34277 7.79368C1.45749 5.33668 2.83093 3.19971 5.02176 2.0695C5.68862 1.72548 6.40343 1.50343 7.20134 1.39252C7.67288 1.32697 8.80719 1.37558 9.31419 1.48308ZM7.20134 4.12651C5.69472 4.46019 4.52887 5.57783 4.12574 7.07492C4.04718 7.36669 4.02899 7.55685 4.02899 8.08568C4.02899 8.61451 4.04718 8.80466 4.12574 9.09644C4.51788 10.5528 5.63791 11.6566 7.09774 12.0254C7.55652 12.1413 8.53386 12.1283 9.00282 12C10.4119 11.6146 11.4946 10.5213 11.8783 9.09644C11.9568 8.80466 11.975 8.61451 11.975 8.08568C11.975 7.55685 11.9568 7.36669 11.8783 7.07492C11.4938 5.6471 10.3987 4.54272 9.00282 4.17494C8.48675 4.03895 7.69308 4.01762 7.20134 4.12651ZM8.6427 5.47904C9.14516 5.60887 9.48642 5.80828 9.87172 6.1974C10.257 6.58652 10.4545 6.93116 10.583 7.43861C10.7439 8.07391 10.6597 8.76572 10.3495 9.35762C10.1568 9.72513 9.61804 10.2703 9.26143 10.4584C8.67001 10.7704 7.98843 10.8543 7.36129 10.6923C6.86622 10.5644 6.51886 10.3611 6.13188 9.97243C5.74632 9.58529 5.55038 9.24351 5.42098 8.73274C5.26063 8.09938 5.34367 7.41103 5.65259 6.81374C5.83906 6.45328 6.37861 5.90944 6.74327 5.71452C7.32926 5.40128 8.01325 5.31646 8.6427 5.47904Z" fill="white"/>
</svg>
