<svg width="135" height="139" viewBox="0 0 135 139" fill="none" xmlns="http://www.w3.org/2000/svg">
<path fill-rule="evenodd" clip-rule="evenodd" d="M48.7461 1.40225C47.3203 2.93452 46.5304 3.21897 43.702 3.21897C42.8354 3.21897 42.4871 3.39338 41.7601 4.19239L40.8737 5.16582L39.9109 4.50836C38.6059 3.61698 37.3661 3.12524 36.8888 3.30971C36.325 3.52732 36.0856 5.18946 36.4554 6.3172C36.6353 6.86517 37.2265 7.64109 37.8321 8.12359C38.9838 9.0416 39.1609 9.70232 38.4215 10.3239C38.1615 10.5426 36.4303 11.5818 34.5742 12.6335L31.1994 14.5458L29.2434 14.4953C26.9383 14.4358 26.3365 14.0386 25.8983 12.2871C25.5193 10.7727 24.8246 10.1593 23.5581 10.2207C18.6174 10.46 16.5696 10.6469 16.2829 10.8847C15.7089 11.3601 15.9087 12.1512 16.7076 12.5669C18.4608 13.4792 18.3936 14.6295 16.5874 14.6295C16.044 14.6295 15.4632 14.843 15.1501 15.1582C14.4789 15.8336 14.7078 16.7339 16.0513 18.6993C17.1987 20.3777 17.2964 21.4715 16.4308 22.9475C16.1039 23.5053 15.7497 24.5208 15.6433 25.2043C15.5372 25.8882 15.321 26.9977 15.163 27.6701C15.0051 28.3425 14.7316 29.5651 14.5553 30.3869C14.1023 32.5003 13.9435 32.6429 12.2764 32.4332C11.2807 32.3079 10.5819 32.3797 9.86704 32.6804C9.31303 32.9132 8.40373 33.1037 7.84595 33.1037C7.27413 33.1037 6.68556 33.2814 6.49604 33.5112C6.3111 33.7353 6.00818 33.9187 5.82243 33.9187C5.63668 33.9187 4.9898 34.4591 4.38477 35.1195C3.58212 35.996 3.12396 36.8537 2.68901 38.2947C2.23382 39.8022 1.84775 40.5037 1.05481 41.2628C-0.222746 42.4856 -0.334789 43.6576 0.691414 45.0576C1.06264 45.564 1.36637 46.2717 1.36637 46.6306C1.36637 46.9895 1.60125 47.6149 1.88852 48.0208C2.17551 48.4264 2.49517 49.0983 2.59884 49.5139C2.73599 50.0633 3.09696 50.4029 3.92202 50.7588C4.70254 51.0956 5.16529 51.5119 5.40423 52.0924C5.59537 52.5565 5.89829 52.9363 6.07729 52.9363C6.25656 52.9363 7.44961 52.5228 8.72906 52.0174L11.055 51.0986L10.8992 53.3199C10.6783 56.4676 10.6791 56.4681 15.3722 56.4681C18.9036 56.4681 19.1239 56.4358 19.9952 55.7889C20.4984 55.4153 21.1412 55.1097 21.4236 55.1097C21.706 55.1097 22.486 54.6237 23.1566 54.0295C23.8311 53.4321 24.7547 52.892 25.2231 52.8211C28.3538 52.3473 28.3557 52.3473 28.6724 53.0471C28.8924 53.5334 28.8913 53.9415 28.6683 54.5856C28.1556 56.0657 28.2885 58.6462 28.9332 59.7282C30.1438 61.7604 31.7175 62.9884 33.1114 62.9884C33.859 62.9884 35.2208 63.7073 36.5524 64.8046C36.9719 65.1504 37.6066 65.4335 37.9628 65.4335C38.409 65.4335 38.7403 65.6867 39.0289 66.2486C39.4358 67.0405 39.7473 67.1739 40.962 67.0774C41.2827 67.0519 42.2682 67.3983 43.1515 67.8471C44.6027 68.5842 44.7744 68.7629 44.9278 69.6973C45.1956 71.3284 45.1165 72.5765 44.6985 73.3122C44.4863 73.6858 44.3084 74.3397 44.303 74.7654C44.2836 76.3461 47.0663 77.9308 49.8611 77.9308C50.4937 77.9308 51.0769 78.0378 51.1573 78.1685C51.2375 78.2992 51.1109 78.9743 50.876 79.6684C50.4921 80.8016 50.4905 80.9953 50.8598 81.5626C51.0861 81.91 51.6336 82.3453 52.0764 82.5298C53.2354 83.0128 53.6174 85.1819 52.798 86.6245C52.5858 86.9981 52.4079 87.646 52.4025 88.0644C52.3974 88.4825 52.2173 89.1672 52.0024 89.5853C51.6066 90.3552 51.0431 94.8379 51.0431 97.2156C51.0431 98.044 51.1914 98.6354 51.4535 98.8544C51.6792 99.043 52.9014 99.3513 54.1698 99.5399C57.5403 100.041 58.1234 100.705 58.3327 104.284L58.4676 106.593H59.8176C60.56 106.593 61.3195 106.692 61.5049 106.813C61.9604 107.109 61.9264 109.012 61.4364 110.637L61.0363 111.965L62.0155 113.055L62.9947 114.146L62.823 116.211C62.6175 118.683 62.1891 119.369 60.4323 120.04C59.7309 120.307 58.3939 121.074 57.4612 121.744C55.3053 123.292 51.8531 126.931 51.8531 127.655C51.8531 127.958 52.2783 128.827 52.798 129.587C53.3315 130.367 53.743 131.304 53.743 131.738C53.743 132.708 54.0048 132.868 54.9857 132.496C55.7406 132.21 55.8596 132.29 58.3864 134.76C59.8267 136.168 61.1359 137.667 61.2957 138.09C61.5681 138.811 61.6591 138.849 62.7515 138.698C63.4383 138.604 64.0352 138.657 64.2058 138.829C64.6546 139.28 65.029 138.887 65.8819 137.069C66.3233 136.128 67.42 134.576 68.379 133.535C70.0156 131.759 70.1204 131.693 70.8083 132.008C71.2038 132.19 71.6965 132.273 71.9031 132.193C72.1099 132.113 72.7805 131.211 73.3934 130.187C74.0062 129.164 75.0008 127.921 75.6034 127.426C77.2306 126.087 77.7439 124.829 78.2088 121.041C78.4318 119.223 78.8497 117.199 79.1378 116.544C79.4256 115.889 79.6613 115.123 79.6613 114.842C79.6613 114.406 79.7371 114.379 80.1818 114.658C80.6346 114.943 80.8395 114.843 81.7636 113.885C82.3476 113.279 83.1764 112.697 83.6054 112.59C84.0347 112.484 84.9999 111.974 85.7505 111.456C86.5007 110.939 87.5942 110.452 88.1803 110.373C88.7662 110.295 89.6341 110.172 90.109 110.1C90.5839 110.029 91.4673 109.553 92.0724 109.045C93.5432 107.808 94.0349 107.692 95.4633 108.241C97.1308 108.881 99.1786 108.638 101.184 107.562C103.119 106.523 104.238 105.484 105.413 103.636C105.958 102.779 106.651 102.067 107.14 101.863C107.615 101.665 108.724 100.548 109.791 99.1935C111.532 96.9831 111.632 96.7796 111.735 95.2082C111.833 93.7354 111.958 93.4322 112.868 92.4656C113.43 91.8679 114.066 91.0121 114.282 90.5639C114.888 89.3022 115.799 85.0287 116.499 80.1642C116.849 77.7319 117.285 75.5604 117.468 75.3387C117.651 75.117 118.567 74.5676 119.504 74.1175C121.462 73.1772 122.895 71.6593 123.571 69.8073C124.237 67.987 124.896 67.395 126.936 66.7835C128.35 66.3597 128.923 66.0258 129.518 65.2776C129.939 64.7486 131.169 63.347 132.252 62.1628C134.508 59.6956 135.011 58.6929 135 56.6806C134.988 54.6397 134.105 49.7014 133.565 48.6619C133.05 47.6709 132.114 47.0973 130.544 46.8102C128.026 46.3502 127.586 46 124.887 42.3174C123.116 39.9014 122.113 38.7674 121.642 38.6484C121.267 38.5536 120.749 38.2069 120.492 37.8779C119.464 36.5646 118.827 36.3676 115.825 36.4358C112.826 36.5037 111.629 36.1576 109.863 34.7128C108.743 33.797 107.095 33.7476 104.772 34.5604C103.672 34.9451 102.744 35.2315 102.71 35.1967C102.675 35.1619 102.885 34.2795 103.175 33.2357C103.78 31.0655 103.943 31.3674 101.26 29.7071C97.4982 27.3799 95.3472 26.5834 92.8251 26.5834C91.2046 26.5834 90.1004 27.039 88.1735 28.5031C87.3447 29.1328 86.6382 29.6004 86.6033 29.542C86.5685 29.4838 86.319 29.1711 86.0488 28.847C85.5609 28.2624 85.5661 28.2545 86.8193 27.6965C88.4314 26.9789 90.7305 25.0495 90.7305 24.414C90.7305 23.6713 88.7702 23.0067 86.1408 22.8578L83.846 22.7277L81.9561 23.9706C78.931 25.9599 77.9798 25.5681 79.9002 23.1235C80.9858 21.7415 82.3025 20.6062 84.0485 19.5463C84.8241 19.0758 85.0609 18.7577 85.0609 18.1866C85.0609 17.7427 85.3339 17.183 85.7359 16.8029C86.1071 16.4519 86.4108 16.0737 86.4108 15.9624C86.4108 15.851 85.8023 15.5565 85.0582 15.3079C83.6778 14.8463 83.171 14.2997 83.171 13.2722C83.171 12.9541 82.9059 11.5326 82.5819 10.1131C81.8441 6.8812 81.4845 6.59349 79.9383 7.99916C79.0849 8.77508 78.8513 9.18097 78.8513 9.88842C78.8513 10.5875 78.7152 10.8303 78.2439 10.9721C77.9096 11.0729 77.1947 11.6312 76.6553 12.2132C75.713 13.229 75.6053 13.2711 73.9555 13.2695C71.7826 13.2676 70.4813 12.9054 69.5596 12.0458C69.1606 11.6739 68.5671 11.368 68.2405 11.3664C67.9141 11.3647 67.2218 11.2927 66.7021 11.2061C65.8603 11.0659 65.6308 11.1735 64.5995 12.1909L63.4421 13.333L61.4947 13.1518C59.9844 13.0111 59.0327 13.0951 57.2527 13.5265C54.3358 14.2331 54.2227 14.2288 53.2119 13.3727C52.1152 12.4444 51.3226 10.8502 51.1257 9.17825C50.9916 8.03774 51.0936 7.58268 51.8155 6.10719C52.2815 5.15441 52.663 4.25841 52.663 4.11605C52.663 3.97342 52.3652 3.57568 52.0016 3.23173C51.5205 2.77694 51.3177 2.26347 51.2591 1.35036C51.1419 -0.465548 50.4713 -0.451692 48.7461 1.40225Z" fill="#FFD400"/>
</svg>
