<svg width="27" height="4" viewBox="0 0 27 4" fill="none" xmlns="http://www.w3.org/2000/svg">
<path d="M0 2C0 0.666667 0.632689 0 1.89807 0C3.19508 0 3.84359 0.666667 3.84359 2C3.84359 3.33333 3.19508 4 1.89807 4C0.632689 4 0 3.33333 0 2Z" fill="#0C0C0C"/>
<path d="M11.5782 2C11.5782 0.666667 12.2109 0 13.4763 0C14.7733 0 15.4218 0.666667 15.4218 2C15.4218 3.33333 14.7733 4 13.4763 4C12.2109 4 11.5782 3.33333 11.5782 2Z" fill="#0C0C0C"/>
<path d="M23.1564 2C23.1564 0.666667 23.7891 0 25.0545 0C26.3515 0 27 0.666667 27 2C27 3.33333 26.3515 4 25.0545 4C23.7891 4 23.1564 3.33333 23.1564 2Z" fill="#0C0C0C"/>
</svg>
