<svg width="307" height="229" viewBox="0 0 307 229" fill="none" xmlns="http://www.w3.org/2000/svg">
<path d="M199.858 0H182.828C180.125 0 177.886 2.87631 177.415 6.66311H205.267C204.795 2.87631 202.556 0 199.854 0H199.858Z" fill="#FFD400"/>
<path d="M230.463 92.4103C230.429 92.4103 230.396 92.4145 230.363 92.4186C229.974 92.4517 229.598 92.5097 229.229 92.5966C229.18 92.6049 229.126 92.6131 229.076 92.6255C228.7 92.7207 228.335 92.8407 227.979 92.9897C227.897 93.0228 227.81 93.0684 227.727 93.1056C227.466 93.2298 227.222 93.3663 226.974 93.5153C226.874 93.5774 226.771 93.6436 226.676 93.714C226.382 93.9209 226.101 94.1444 225.844 94.401C225.836 94.4093 225.823 94.4175 225.815 94.4258L223.568 96.6731C221.122 99.119 220.936 103.1 222.624 106.937C218.8 105.236 214.815 105.43 212.373 107.868L210.126 110.115C207.688 112.553 207.494 116.538 209.195 120.366C205.358 118.674 201.381 118.864 198.935 121.306L196.692 123.553C196.692 123.553 196.675 123.578 196.667 123.582C196.411 123.843 196.183 124.124 195.976 124.418C195.906 124.513 195.844 124.617 195.781 124.72C195.628 124.96 195.496 125.213 195.372 125.465C195.334 125.552 195.285 125.635 195.252 125.722C195.103 126.074 194.983 126.438 194.888 126.818C194.879 126.868 194.867 126.922 194.854 126.976C194.772 127.344 194.714 127.721 194.681 128.11C194.672 128.143 194.672 128.172 194.672 128.209C194.511 130.245 195.024 132.505 196.158 134.665L175.602 114.109L174.207 112.727L172.241 110.753C168.591 107.102 163.588 105.968 159.954 107.653C159.9 107.678 159.846 107.707 159.793 107.735C159.511 107.876 159.234 108.029 158.969 108.203C158.878 108.265 158.783 108.323 158.696 108.394C158.402 108.605 158.121 108.836 157.86 109.093C157.843 109.101 157.835 109.109 157.827 109.118L155.559 111.386C155.559 111.386 155.542 111.406 155.534 111.423C155.273 111.684 155.041 111.969 154.83 112.259C154.76 112.346 154.702 112.445 154.64 112.536C154.47 112.797 154.313 113.074 154.172 113.356C154.143 113.409 154.114 113.463 154.09 113.517C152.409 117.151 153.539 122.154 157.189 125.809L159.163 127.774L160.546 129.165L203.744 172.364L191.055 171.71L188.891 171.656L185.824 171.561C180.129 171.395 175.262 174.362 173.619 178.596C173.595 178.658 173.574 178.725 173.553 178.787C173.429 179.126 173.33 179.469 173.247 179.813C173.222 179.933 173.189 180.061 173.168 180.185C173.094 180.587 173.04 181.001 173.028 181.415C173.028 181.435 173.019 181.448 173.019 181.464L173.164 183.881C173.164 183.881 173.164 183.91 173.164 183.931C173.156 184.353 173.185 184.763 173.235 185.172C173.247 185.301 173.272 185.421 173.288 185.549C173.355 185.897 173.433 186.248 173.533 186.588C173.549 186.654 173.566 186.72 173.586 186.786C174.985 191.095 179.674 194.344 185.369 194.509L188.44 194.592L190.604 194.662L197.996 195.142C197.996 195.142 198.016 195.151 198.029 195.151L216.449 195.759C216.586 195.763 216.723 195.759 216.863 195.759L237.022 197.133C240.052 197.212 242.535 195.933 244.534 193.959C244.579 193.917 244.629 193.892 244.67 193.851L284.268 154.253C288.063 150.462 287.235 143.476 282.422 138.667L242.961 98.9327L240.821 96.8055C237.705 93.685 233.786 92.162 230.458 92.431L230.463 92.4103Z" fill="#FFD400"/>
<path d="M302.722 159.791C297.851 154.919 290.778 154.071 286.933 157.916L246.905 197.948C243.056 201.785 243.905 208.866 248.78 213.741C253.651 218.612 260.72 219.452 264.564 215.599L304.588 175.579C308.429 171.73 307.593 164.666 302.718 159.795L302.722 159.791Z" fill="#FFD400"/>
<path d="M137.672 54.1492V45.0857H121.217V90.3948H138.33V81.3272H131.075V71.3657H137.266V62.745H131.075V54.1492H137.672Z" fill="#F5F5F5"/>
<path d="M158.617 66.6353C159.478 75.5125 160.471 83.4379 161.601 90.3948H173.901L178.3 45.0857H168.724C167.449 55.5811 166.543 66.3042 165.976 77.2756L164.879 60.0342C164.291 51.3887 163.939 46.4142 163.815 45.0857H153.556C152.111 57.9111 151.193 68.2741 150.853 76.1788L149.827 60.8951L148.784 45.0857H139.199L143.598 90.3948H155.877C157.301 78.3599 158.216 70.4427 158.617 66.6353Z" fill="#F5F5F5"/>
<path d="M99.4275 130.692H148.192C146.177 128.126 144.77 125.25 144.004 122.291H99.4275C97.1057 122.291 95.2227 124.17 95.2227 126.492C95.2227 128.813 97.1057 130.696 99.4275 130.696V130.692Z" fill="#F5F5F5"/>
<path d="M99.4275 116.137H143.358C143.474 113.774 144.008 111.456 145.01 109.296C145.076 109.151 145.159 108.985 145.237 108.824C145.423 108.46 145.626 108.091 145.837 107.731H99.4275C97.1057 107.731 95.2227 109.61 95.2227 111.936C95.2227 114.262 97.1057 116.137 99.4275 116.137Z" fill="#F5F5F5"/>
<path d="M103.475 69.8013L108.615 90.3948H117.269V45.0857H109.012V65.4889L103.475 45.0857H95.2268V90.3948H103.475V69.8013Z" fill="#F5F5F5"/>
<path d="M216.557 205.749C216.371 205.749 216.185 205.745 215.998 205.737L197.71 205.133C197.602 205.129 197.458 205.116 197.346 205.108L190.141 204.636L188.129 204.574L185.1 204.491C175.726 204.226 167.619 198.855 164.498 191.008H74.0581V102.256L73.8511 102.339L57.3755 108.989V219.999C57.3755 224.965 61.4106 229 66.3769 229H231.323C236.29 229 240.325 224.965 240.325 219.999V219.328C237.254 215.728 235.292 211.407 234.692 206.983L216.549 205.745L216.557 205.749ZM149.107 220.048C143.582 220.048 139.104 215.562 139.104 210.037C139.104 204.512 143.582 200.026 149.107 200.026C154.632 200.026 159.118 204.508 159.118 210.037C159.118 215.566 154.636 220.048 149.107 220.048Z" fill="#F5F5F5"/>
<path d="M190.861 115.218L191.846 114.229C193.799 112.284 196.187 110.864 198.832 110.053C199.018 109.436 199.25 108.84 199.502 108.253C198.91 107.934 198.244 107.735 197.524 107.735H183.382L190.861 115.218Z" fill="#F5F5F5"/>
<path d="M99.4275 145.248H162.478L154.073 136.842H99.4275C97.1057 136.842 95.2227 138.725 95.2227 141.043C95.2227 143.36 97.1057 145.243 99.4275 145.243V145.248Z" fill="#F5F5F5"/>
<path d="M201.162 58.8009V57.0131C201.162 53.4084 200.868 50.859 200.301 49.3526C199.701 47.8544 198.509 46.6087 196.696 45.6237C194.896 44.6304 192.694 44.1338 190.145 44.1338C187.811 44.1338 185.795 44.5932 184.152 45.4954C182.488 46.4017 181.288 47.6557 180.547 49.2574C179.811 50.8631 179.422 53.3959 179.422 56.8641C179.422 59.281 179.691 61.2468 180.22 62.7988C180.746 64.359 181.408 65.5592 182.195 66.4407C182.989 67.3181 184.628 68.7252 187.082 70.6704C189.524 72.5907 191.076 73.9605 191.697 74.7758C192.309 75.5994 192.615 77.3376 192.615 80.0153C192.615 81.2279 192.466 82.1425 192.123 82.7509C191.792 83.3675 191.316 83.6738 190.658 83.6738C190 83.6738 189.549 83.4338 189.292 82.9454C189.036 82.4653 188.903 81.3686 188.903 79.6676V74.1551H179.736V77.1307C179.736 80.5161 180.03 83.1399 180.609 84.9816C181.197 86.8315 182.41 88.3545 184.293 89.5506C186.151 90.7425 188.398 91.3426 191.043 91.3426C193.451 91.3426 195.562 90.8253 197.379 89.7865C199.183 88.7477 200.404 87.4689 201.037 85.9417C201.671 84.4146 201.973 82.0308 201.973 78.8068C201.973 74.3703 201.41 71.1422 200.288 69.1515C199.121 67.1567 196.373 64.5991 191.978 61.4869C190.459 60.4067 189.512 59.4797 189.193 58.714C188.849 57.9484 188.667 56.8103 188.667 55.3038C188.667 54.1202 188.825 53.2428 189.143 52.6634C189.433 52.084 189.876 51.7943 190.48 51.7943C191.018 51.7943 191.403 52.0137 191.659 52.4399C191.891 52.8745 192.003 53.8677 192.003 55.4363V58.7927H201.157L201.162 58.8009Z" fill="#F5F5F5"/>
<path d="M62.0811 58.6064C65.1477 57.3814 68.3055 56.7606 71.4963 56.7606C72.3613 56.7606 73.2179 56.8144 74.0622 56.9096V26.789H223.655V83.9676C223.82 83.889 223.982 83.8104 224.16 83.74C224.954 83.4006 225.803 83.1234 226.676 82.9123C226.862 82.8668 227.069 82.8212 227.28 82.7799C228.008 82.6226 228.753 82.5108 229.498 82.4446C229.523 82.4446 229.643 82.4322 229.664 82.4322C230.177 82.3908 230.699 82.3701 231.22 82.3701C234.295 82.3701 237.403 83.0985 240.337 84.4394V19.112C240.337 14.1457 236.302 10.1105 231.336 10.1105H66.3852C61.4189 10.1105 57.3838 14.1457 57.3838 19.112V60.4977L59.2048 59.7776L62.0811 58.6106V58.6064Z" fill="#F5F5F5"/>
<path d="M168.632 151.398H99.4275C97.1057 151.398 95.2227 153.281 95.2227 155.602C95.2227 157.924 97.1057 159.803 99.4275 159.803H177.038L168.632 151.398Z" fill="#F5F5F5"/>
<path d="M99.4275 165.957C97.1057 165.957 95.2227 167.84 95.2227 170.158C95.2227 172.475 97.1057 174.362 99.4275 174.362H125.335C127.657 174.362 129.535 172.484 129.535 170.158C129.535 167.832 127.657 165.957 125.335 165.957H99.4275Z" fill="#F5F5F5"/>
<path d="M47.8279 102.124L70.1099 93.0642L72.1833 92.2282L75.1258 91.057C80.5887 88.8677 83.9699 84.0463 83.7878 79.3738C83.7878 79.3035 83.7754 79.2331 83.7713 79.1627C83.7506 78.7944 83.7009 78.4302 83.6347 78.066C83.6099 77.9377 83.5892 77.8094 83.5561 77.6853C83.4609 77.2756 83.3409 76.8617 83.1836 76.4561C83.1836 76.4354 83.1753 76.423 83.1712 76.4064L81.7724 72.9218C81.7724 72.9218 81.7599 72.8928 81.7434 72.8762C81.582 72.4748 81.3833 72.0982 81.1681 71.734C81.1019 71.6223 81.0274 71.5105 80.9571 71.4029C80.7584 71.0925 80.5349 70.7987 80.2949 70.5131C80.2535 70.4593 80.2121 70.4014 80.1625 70.3476C77.0627 66.8381 71.2852 65.6999 65.8265 67.8893L62.8881 69.077L60.8147 69.9006L29.4195 82.6598C24.416 84.6753 21.1507 88.905 20.7948 93.2008C20.7865 93.2298 20.7741 93.2587 20.7658 93.2877L19.2925 139.147C19.2097 142.276 20.5299 144.842 22.5702 146.903C22.6116 146.949 22.6406 147.002 22.682 147.044L47.832 172.194V141.035C47.832 140.977 47.8237 140.914 47.8237 140.857V102.119L47.8279 102.124Z" fill="#FFD400"/>
<path d="M4.27779 152.664C-0.593302 157.535 -1.43343 164.6 2.42371 168.448L47.7161 213.84C47.7575 213.845 47.7948 213.857 47.8361 213.861V178.547L20.0705 150.785C16.23 146.936 9.15301 147.785 4.27779 152.66V152.664Z" fill="#FFD400"/>
</svg>
