<svg width="34" height="34" viewBox="0 0 34 34" fill="none" xmlns="http://www.w3.org/2000/svg">
<path fill-rule="evenodd" clip-rule="evenodd" d="M21.0214 0.0946942C20.0845 0.300367 19.3147 0.732433 18.5868 1.46109C18.121 1.92735 17.9552 2.15102 17.7045 2.65123C17.5348 2.99005 17.3631 3.39735 17.323 3.5564L17.2501 3.84549H9.06264H0.875207L0.57887 3.99491C0.175843 4.19812 -0.0322844 4.56066 0.00407637 4.99598C0.0338563 5.35327 0.184617 5.59726 0.513992 5.82119L0.733752 5.97062L8.9832 5.97121L17.2327 5.97188L17.38 6.45269C17.8005 7.82572 18.9804 9.04701 20.3786 9.55631C21.7269 10.0475 23.0982 9.95252 24.396 9.27799C25.5439 8.68135 26.5648 7.39379 26.8735 6.15324L26.9189 5.97062H30.0926H33.2662L33.486 5.82119C33.8154 5.59726 33.9661 5.35327 33.9959 4.99598C34.0323 4.56066 33.8242 4.19812 33.4211 3.99491C33.1265 3.84628 33.1078 3.84549 30.0172 3.84549H26.9096L26.8357 3.56324C26.7048 3.0631 26.2594 2.23052 25.875 1.76711C24.9393 0.639193 23.5025 -0.0167424 22.0049 0.000325036C21.6834 0.00404402 21.2409 0.0464802 21.0214 0.0946942ZM22.921 2.24805C23.9444 2.56622 24.6688 3.40997 24.8563 4.50188C25.1672 6.31363 23.5148 7.99294 21.6975 7.7119C20.0253 7.45336 18.9252 5.80565 19.3581 4.20802C19.4967 3.69653 19.869 3.09299 20.2308 2.79341C20.5232 2.55135 21.0856 2.25927 21.4059 2.18323C21.8135 2.08647 22.4951 2.11563 22.921 2.24805ZM10.7183 12.2099C9.01325 12.6581 7.71284 13.8891 7.19169 15.5485L7.07237 15.9285L3.86477 15.947C0.743723 15.9649 0.652256 15.9691 0.473709 16.1023C0.124925 16.3626 0.016108 16.5748 0.016108 16.9947C0.016108 17.4147 0.124925 17.6269 0.473709 17.8872C0.652323 18.0204 0.743657 18.0246 3.87215 18.0426L7.08712 18.061L7.19687 18.4382C7.51315 19.525 8.37584 20.6296 9.38211 21.236C9.58605 21.359 10.015 21.551 10.3353 21.6628C10.8292 21.8352 11.0421 21.8706 11.7355 21.8958C12.7466 21.9323 13.2513 21.8268 14.1417 21.3924C15.2566 20.8485 16.2472 19.7056 16.6143 18.5395L16.7657 18.0588L25.0542 18.0414C33.3083 18.0242 33.3434 18.0235 33.5262 17.8872C33.8751 17.627 33.9839 17.4147 33.9839 16.9947C33.9839 16.5748 33.8751 16.3625 33.5262 16.1023C33.3434 15.966 33.3083 15.9653 25.0534 15.948L16.7642 15.9306L16.6117 15.4398C16.2508 14.2786 15.2451 13.125 14.1169 12.5783C13.7832 12.4166 13.3157 12.2389 13.0781 12.1833C12.4721 12.0417 11.3086 12.0548 10.7183 12.2099ZM12.8339 14.3343C14.4666 14.8956 15.2079 16.7595 14.4148 18.3093C14.1054 18.914 13.5394 19.3932 12.8312 19.6502C12.4839 19.7762 12.32 19.7957 11.8009 19.7729C11.2806 19.7501 11.1128 19.7128 10.7333 19.5353C9.31318 18.8709 8.70182 17.1631 9.38484 15.7683C9.70543 15.1137 10.1955 14.6692 10.9287 14.368C11.4377 14.1589 12.2801 14.144 12.8339 14.3343ZM21.221 24.1944C19.41 24.5466 17.8909 25.8684 17.38 27.5368L17.2327 28.0176L8.9832 28.0183L0.733752 28.0189L0.513992 28.1683C0.184617 28.3922 0.0338563 28.6362 0.00407637 28.9935C-0.0322844 29.4288 0.175843 29.7914 0.57887 29.9946L0.875207 30.144H9.06264H17.2501L17.323 30.4331C17.3631 30.5921 17.5364 31.003 17.7082 31.3462C18.2224 32.3736 19.1583 33.2117 20.3181 33.6836C22.1655 34.4352 24.5649 33.807 25.8662 32.2309C26.2902 31.7173 26.6464 31.0694 26.8035 30.5258L26.9139 30.144H30.0194C33.1077 30.144 33.1265 30.1432 33.4211 29.9946C33.8242 29.7914 34.0323 29.4288 33.9959 28.9935C33.9661 28.6362 33.8154 28.3922 33.486 28.1683L33.2662 28.0189H30.0975H26.9288L26.8098 27.637C26.5632 26.8451 26.1822 26.2294 25.5445 25.5922C24.8682 24.9166 24.2385 24.5416 23.3822 24.3046C22.7342 24.1252 21.8175 24.0784 21.221 24.1944ZM22.717 26.33C24.1342 26.652 25.0986 28.0756 24.8563 29.4876C24.7171 30.2981 24.2932 30.9644 23.6387 31.401C22.3458 32.2635 20.5647 31.8982 19.7235 30.5979C18.8194 29.2005 19.338 27.2824 20.8163 26.556C21.4881 26.2258 21.9939 26.1657 22.717 26.33Z" fill="#FFD400"/>
</svg>
