<svg width="20" height="20" viewBox="0 0 20 20" fill="none" xmlns="http://www.w3.org/2000/svg">
<path fill-rule="evenodd" clip-rule="evenodd" d="M7.61801 0.0215429C5.64281 0.170768 3.82032 1.01026 2.4179 2.41684C0.195844 4.64539 -0.562468 7.83755 0.426441 10.7999C0.830571 12.0106 1.49074 13.0707 2.4186 13.9989C3.69275 15.2735 5.25615 16.0586 7.05129 16.3255C7.55716 16.4007 8.6403 16.4113 9.16183 16.3462C10.2776 16.2069 11.5357 15.774 12.4102 15.2285C12.5641 15.1325 12.7051 15.054 12.7234 15.054C12.7417 15.054 13.8298 16.1259 15.1413 17.4362C16.806 19.0992 17.579 19.8453 17.7017 19.9075C17.9456 20.031 18.3184 20.0308 18.5616 19.907C18.6659 19.8539 18.9695 19.5846 19.3081 19.2448C19.8049 18.7462 19.8877 18.645 19.9478 18.4625C20.0324 18.2055 20.0141 17.95 19.8933 17.7001C19.827 17.563 19.2144 16.9326 17.4047 15.1388L15.0041 12.7593L15.2261 12.3909C15.8185 11.4081 16.1964 10.2778 16.3357 9.07199C16.397 8.54076 16.364 7.33582 16.2744 6.83976C15.9062 4.79959 14.7983 2.95785 13.203 1.73405C11.5809 0.489674 9.57257 -0.126117 7.61801 0.0215429ZM9.03036 3.30186C11.011 3.62511 12.6291 5.18358 13.0688 7.1918C13.1699 7.65312 13.1897 8.46327 13.112 8.95198C12.8642 10.5095 11.9203 11.8453 10.5429 12.5879C9.83619 12.9688 9.21948 13.1342 8.38965 13.1654C7.603 13.195 7.09268 13.1127 6.38686 12.8428C4.82798 12.2466 3.6646 10.8581 3.31492 9.17627C3.21979 8.7187 3.20025 7.86149 3.27494 7.4207C3.45019 6.38598 3.94433 5.42821 4.68521 4.68717C5.84054 3.53159 7.39707 3.03533 9.03036 3.30186Z" fill="#171A1C"/>
</svg>
