<svg width="39" height="60" viewBox="0 0 39 60" fill="none" xmlns="http://www.w3.org/2000/svg">
<path fill-rule="evenodd" clip-rule="evenodd" d="M8.00812 0.241671C7.73807 0.383134 7.47382 0.652698 7.32857 0.935038C7.10214 1.37513 7.09091 1.61985 7.09091 6.08982V10.7826H4.24982C1.63564 10.7826 1.3715 10.8015 0.942382 11.0185C0.642082 11.1704 0.391064 11.4193 0.2379 11.7172C0.0137092 12.1531 0 12.4023 0 16.0567C0 19.632 0.0174913 19.9676 0.224191 20.3695C0.586773 21.0743 1.18312 21.3308 2.45913 21.3308H3.52714L3.57689 26.81C3.62239 31.8166 3.64768 32.3801 3.87022 33.344C4.60685 36.5355 5.91536 38.907 8.21245 41.214C10.6527 43.6647 13.6751 45.2217 16.9886 45.7353C17.6977 45.8451 17.8455 45.9057 17.8455 46.0863C17.8455 46.5011 18.2124 48.1145 18.5192 49.0491C19.313 51.4671 20.5671 53.4777 22.4394 55.3344C25.2778 58.1492 28.7915 59.7249 32.7689 59.9662C33.8629 60.0325 34.0308 60.0151 34.4803 59.7876C35.3684 59.3383 35.6824 58.3313 35.2166 57.426C34.8751 56.7621 34.3507 56.5401 32.9113 56.4504C27.5334 56.1149 22.9734 52.3389 21.6424 47.1191C21.504 46.5768 21.3909 46.0706 21.3909 45.9944C21.3909 45.9124 21.8211 45.7777 22.4444 45.6646C23.0238 45.5595 24.0475 45.2851 24.7194 45.0548C27.0526 44.2549 28.8074 43.1549 30.6847 41.3149C32.6158 39.4223 33.8984 37.3777 34.6658 34.9685C35.3605 32.7876 35.3678 32.709 35.4223 26.81L35.4729 21.3308H36.5321C37.8386 21.3308 38.4029 21.0943 38.7621 20.3962C38.9863 19.9602 39 19.711 39 16.0567C39 12.4023 38.9863 12.1531 38.7621 11.7172C38.6089 11.4193 38.3579 11.1704 38.0576 11.0185C37.6285 10.8015 37.3644 10.7826 34.7502 10.7826H31.9091V6.08982C31.9091 1.61797 31.8979 1.37537 31.6712 0.934569C31.4036 0.414544 30.7228 0 30.1364 0C29.5499 0 28.8691 0.414544 28.6015 0.934569C28.3749 1.37537 28.3636 1.61797 28.3636 6.08982V10.7826H19.5H10.6364V6.08982C10.6364 1.61797 10.6251 1.37537 10.3985 0.934569C9.96237 0.0868467 8.89484 -0.222567 8.00812 0.241671ZM20.3268 21.579C21.0999 22.0098 21.4559 22.9472 21.1498 23.7456C21.0823 23.9219 20.5719 24.5273 20.0156 25.0911L19.0042 26.116L21.6449 27.4446C24.0682 28.6638 24.3074 28.8117 24.5499 29.2419C24.8754 29.8191 24.8885 30.3471 24.5914 30.9167C24.3028 31.4703 20.6146 35.1028 20.1719 35.2697C19.0461 35.6938 17.7273 34.7862 17.7273 33.5872C17.7273 32.9886 17.872 32.7697 19.0673 31.5603C19.591 31.0304 19.9955 30.579 19.9665 30.5569C19.9374 30.535 18.7569 29.9481 17.3431 29.2527C14.6771 27.9417 14.3776 27.7224 14.226 26.9705C14.0506 26.1008 14.2104 25.846 16.1713 23.8697C17.1895 22.8435 18.2301 21.8524 18.4836 21.6673C19.0494 21.2542 19.6892 21.2236 20.3268 21.579Z" fill="black"/>
</svg>
