<svg width="142" height="119" viewBox="0 0 142 119" fill="none" xmlns="http://www.w3.org/2000/svg">
<path d="M63.3178 114.26L0 39.0524C0.720793 39.0224 1.1204 38.9886 1.51628 38.9886C15.4591 38.9886 29.4106 38.9886 43.3708 38.9886C44.2298 38.9886 44.7639 39.0374 45.0328 40.1146C51.0979 64.6507 57.1979 89.1718 63.3327 113.678C63.339 113.872 63.334 114.066 63.3178 114.26Z" fill="#171A1C"/>
<path d="M142 38.9848L78.7494 114.098L78.5515 113.986C79.7964 108.996 81.0313 104.007 82.2563 99.0178C87.0889 79.5811 91.9154 60.1393 96.7356 40.6926C97.0568 39.3864 97.5199 38.9323 98.9241 38.9398C112.642 39.0036 126.359 38.9773 140.08 38.9773L142 38.9848Z" fill="#171A1C"/>
<path d="M50.9037 39.0336H91.0291C84.3714 65.7491 77.7411 92.3971 71.1382 118.977L70.802 119L50.9037 39.0336Z" fill="#171A1C"/>
<path d="M89.6847 32.9196H52.252C58.5076 21.9114 64.6698 11.0795 70.959 0L89.6847 32.9196Z" fill="#171A1C"/>
<path d="M23.3867 3.56931L41.6381 32.9233H0.0300546L23.3867 3.56931Z" fill="#171A1C"/>
<path d="M100.31 32.9046C106.438 23.0674 112.414 13.4253 118.546 3.57307L141.895 32.9046H100.31Z" fill="#171A1C"/>
<path d="M46.9525 30.1309L28.2566 0.0637761H64.0386L46.9525 30.1309Z" fill="#171A1C"/>
<path d="M94.9841 30.1347L77.8681 0.0224823H113.721C107.424 10.1337 101.273 20.0197 94.9841 30.1347Z" fill="#171A1C"/>
</svg>
