<svg width="121" height="121" viewBox="0 0 121 121" fill="none" xmlns="http://www.w3.org/2000/svg">
<path d="M61.3152 100.888C44.9786 100.31 31.0914 95.3164 18.9784 85.5846C11.323 79.4294 5.09164 71.6888 0.713047 62.8951C-0.12025 61.2485 -0.13705 59.7599 0.713047 58.12C10.9512 38.475 26.8812 26.1793 48.5066 21.5554C65.7169 17.8589 81.5697 21.9586 96.2195 31.2333C106.74 37.9004 114.666 46.9937 120.291 58.1166C121.124 59.7632 121.148 61.2552 120.291 62.8918C109.463 83.5247 92.5851 95.891 69.6582 99.9907C66.6342 100.525 63.5564 100.653 61.3152 100.888ZM84.6844 60.563C84.6844 47.2289 73.8684 36.3076 60.6869 36.3076C57.4784 36.2825 54.2971 36.896 51.328 38.1123C48.3589 39.3286 45.6614 41.1233 43.3925 43.3922C41.1236 45.661 39.3286 48.3586 38.112 51.3278C36.8955 54.297 36.2816 57.4786 36.3062 60.6873C36.3062 73.8803 47.2332 84.6807 60.5592 84.6908C73.8046 84.7109 84.6945 73.8165 84.6744 60.5731L84.6844 60.563Z" fill="#171A1C"/>
<path d="M8.06483 8.08359C8.06483 12.2236 8.08499 16.1687 8.06483 20.1139C8.08597 20.9826 7.82169 21.8342 7.31249 22.5383C6.8033 23.2424 6.07729 23.76 5.24574 24.0119C4.44565 24.2878 3.57668 24.2907 2.77477 24.0202C1.97287 23.7496 1.28325 23.2208 0.813813 22.5166C0.357209 21.8194 0.093988 21.0134 0.051078 20.1811C-0.0161233 14.8044 -0.00940321 9.42776 0.0275575 4.0511C0.0275575 1.69881 1.75799 0.0186075 4.1302 0.0186075C9.46374 0.00740618 14.7962 0.0118867 20.1275 0.0320492C20.684 -0.0185825 21.2451 0.0470546 21.7749 0.224795C22.3048 0.402535 22.7919 0.688496 23.2054 1.06453C23.6189 1.44056 23.9497 1.89846 24.1768 2.40915C24.4039 2.91984 24.5224 3.47217 24.5248 4.0311C24.5271 4.59002 24.4132 5.14333 24.1904 5.6559C23.9675 6.16848 23.6406 6.62912 23.2303 7.0086C22.8199 7.38808 22.3352 7.6781 21.8069 7.86027C21.2785 8.04244 20.718 8.11277 20.1611 8.06679C16.6364 8.10376 13.1049 8.06679 9.58358 8.06679L8.06483 8.08359Z" fill="#171A1C"/>
<path d="M112.899 8.08347H111.427C107.859 8.08347 104.29 8.11707 100.722 8.06667C99.6802 8.05364 98.6845 7.63437 97.9471 6.89814C97.2097 6.16191 96.7888 5.16688 96.774 4.1249C96.7505 1.97088 98.407 0.0722488 100.581 0.048726C106.123 -0.016242 111.665 -0.016242 117.207 0.048726C118.212 0.0767183 119.167 0.495732 119.868 1.21673C120.57 1.93772 120.963 2.90386 120.963 3.90984C121.012 9.36715 121.012 14.8245 120.963 20.2818C120.93 21.3262 120.492 22.3168 119.741 23.0431C118.989 23.7694 117.985 24.1743 116.94 24.1716C115.895 24.169 114.892 23.7591 114.145 23.0291C113.397 22.299 112.963 21.3062 112.936 20.2616C112.885 16.6962 112.936 13.1241 112.936 9.55533L112.899 8.08347Z" fill="#171A1C"/>
<path d="M8.06479 112.932C12.1574 112.932 16.0987 112.905 20.0367 112.932C23.0104 112.955 24.9794 115.738 23.9109 118.396C23.2388 120.025 21.9889 120.96 20.2148 120.97C14.8028 121.01 9.38754 121.01 3.96887 120.97C3.44425 120.969 2.92504 120.864 2.44152 120.66C1.95801 120.456 1.51988 120.159 1.15269 119.784C0.785492 119.409 0.49659 118.965 0.302832 118.477C0.109074 117.99 0.0143391 117.469 0.0241541 116.944C-0.00496648 111.567 -0.00496648 106.191 0.0241541 100.814C0.0210368 100.286 0.122568 99.7636 0.322872 99.2756C0.523175 98.7877 0.818271 98.3442 1.19108 97.9711C1.56388 97.5979 2.007 97.3024 2.49477 97.1017C2.98253 96.901 3.50527 96.799 4.03271 96.8017C4.55993 96.7977 5.08275 96.8979 5.57111 97.0966C6.05947 97.2954 6.50376 97.5886 6.87844 97.9596C7.25312 98.3306 7.55081 98.7719 7.7544 99.2583C7.95799 99.7447 8.06348 100.267 8.06479 100.794C8.10511 104.779 8.06479 108.765 8.06479 112.932Z" fill="#171A1C"/>
<path d="M112.899 112.932C112.899 108.805 112.899 104.867 112.899 100.918C112.875 100.07 113.123 99.2367 113.607 98.5397C114.091 97.8427 114.784 97.3185 115.587 97.0436C117.159 96.4825 118.917 96.8487 119.905 98.1963C120.488 98.9507 120.839 99.8595 120.913 100.811C121.007 106.187 120.983 111.564 120.95 116.941C120.95 119.293 119.223 120.973 116.86 120.973C111.527 121.004 106.194 121.004 100.863 120.973C100.327 120.981 99.7939 120.881 99.2963 120.68C98.7987 120.479 98.3463 120.181 97.9654 119.803C97.5846 119.425 97.283 118.975 97.0784 118.479C96.8738 117.982 96.7703 117.45 96.7739 116.914C96.7941 114.666 98.5548 112.942 100.93 112.928C104.882 112.912 108.823 112.932 112.899 112.932Z" fill="#171A1C"/>
<path d="M76.6101 60.4487C76.6221 63.6415 75.6864 66.766 73.9214 69.4265C72.1565 72.087 69.6418 74.1638 66.6959 75.3939C63.7499 76.624 60.5051 76.9521 57.3726 76.3366C54.24 75.721 51.3605 74.1896 49.0989 71.9362C46.8373 69.6828 45.2952 66.8089 44.6679 63.6783C44.0407 60.5478 44.3566 57.3015 45.5755 54.3506C46.7944 51.3997 48.8615 48.8769 51.5151 47.1019C54.1687 45.3268 57.2893 44.3792 60.4818 44.3792C64.7464 44.3871 68.835 46.0808 71.8561 49.091C74.8773 52.1011 76.5862 56.1837 76.6101 60.4487Z" fill="#171A1C"/>
</svg>
